<?xml version="1.0" encoding="UTF-8"?>
<svg width="225px" height="40px" viewBox="0 0 225 40" version="1.1" xmlns="http://www.w3.org/2000/svg" xmlns:xlink="http://www.w3.org/1999/xlink">
    <!-- Generator: Sketch 63.1 (92452) - https://sketch.com -->
    <title>icon/logo</title>
    <desc>Created with Sketch.</desc>
    <g id="icon/logo" stroke="none" stroke-width="1" fill="none" fill-rule="evenodd">
        <g id="icon/logowithouttext" transform="translate(0.000000, 2.500050)">
            <path d="M10.9465,0.09945 L3.451,23.39395 L-7.10542736e-15,23.39395 L7.5515,0.09945 L10.9465,0.09945 Z M147.1779,0.09985 L139.6834,23.39435 L136.2319,23.39435 L143.7829,0.09985 L147.1779,0.09985 Z M16.82935,7.0821 C17.65585,7.0821 18.42435,7.1456 19.13435,7.2711 C19.84435,7.3966 20.45985,7.5771 20.98135,7.8101 L20.46885,10.6146 C20.16335,10.5246 19.68735,10.3761 19.04035,10.1691 C18.39285,9.9631 17.66485,9.8596 16.85635,9.8596 C16.01135,9.8596 15.44085,9.9631 15.14435,10.1691 C14.84785,10.3761 14.69935,10.5966 14.69935,10.8296 C14.69935,11.0281 14.76685,11.2031 14.90135,11.3556 C15.03635,11.5086 15.21585,11.6481 15.44085,11.7736 C15.66535,11.9001 15.92585,12.0206 16.22285,12.1376 C16.51935,12.2546 16.83835,12.3671 17.17985,12.4746 C17.66485,12.6366 18.16785,12.8161 18.68935,13.0136 C19.21085,13.2116 19.68285,13.4586 20.10485,13.7556 C20.52735,14.0521 20.87385,14.4291 21.14285,14.8876 C21.41285,15.3461 21.54735,15.9081 21.54735,16.5726 C21.54735,17.0946 21.44885,17.5886 21.25085,18.0556 C21.05285,18.5236 20.72535,18.9276 20.26685,19.2691 C19.80885,19.6106 19.21085,19.8801 18.47385,20.0776 C17.73635,20.2751 16.82935,20.3741 15.75085,20.3741 C14.65385,20.3741 13.71935,20.2486 12.94685,19.9971 C12.17385,19.7456 11.55385,19.5206 11.08635,19.3226 L11.59885,16.5456 C12.22785,16.7981 12.89685,17.0311 13.60735,17.2471 C14.31735,17.4626 15.04035,17.5701 15.77785,17.5701 C16.58685,17.5701 17.20685,17.5121 17.63835,17.3951 C18.06935,17.2781 18.28535,17.0406 18.28535,16.6806 C18.28535,16.4471 18.21785,16.2491 18.08285,16.0871 C17.94785,15.9261 17.75935,15.7866 17.51685,15.6696 C17.27435,15.5526 16.99535,15.4406 16.68135,15.3326 C16.36635,15.2246 16.03785,15.1166 15.69685,15.0091 C15.21185,14.8651 14.71735,14.6986 14.21385,14.5106 C13.71035,14.3216 13.25235,14.0836 12.83885,13.7956 C12.42535,13.5081 12.08435,13.1441 11.81435,12.7041 C11.54485,12.2641 11.41035,11.7111 11.41035,11.0456 C11.41035,10.5071 11.51335,9.9986 11.71985,9.5226 C11.92635,9.0461 12.24985,8.6231 12.69085,8.2551 C13.13085,7.8871 13.69235,7.5991 14.37585,7.3921 C15.05885,7.1861 15.87635,7.0821 16.82935,7.0821 Z M29.25355,7.08235 C31.12255,7.08235 32.54255,7.63535 33.51355,8.74035 C34.48405,9.84635 34.96955,11.45935 34.96955,13.58035 C34.96955,13.79585 34.96505,14.02085 34.95605,14.25435 C34.94655,14.48785 34.93305,14.67685 34.91555,14.82035 L26.69205,14.82035 C26.69205,15.64735 27.03305,16.29935 27.71705,16.77485 C28.39955,17.25185 29.28055,17.48935 30.35905,17.48935 C31.02405,17.48935 31.65705,17.41735 32.26005,17.27335 C32.86205,17.13035 33.36955,16.98635 33.78305,16.84185 L34.24155,19.67335 C33.66605,19.87185 33.05505,20.03735 32.40805,20.17235 C31.76105,20.30685 31.03305,20.37435 30.22405,20.37435 C29.14555,20.37435 28.17905,20.23485 27.32555,19.95685 C26.47205,19.67785 25.74405,19.26435 25.14205,18.71635 C24.53955,18.16785 24.07705,17.48935 23.75355,16.68035 C23.42955,15.87185 23.26805,14.92785 23.26805,13.84985 C23.26805,12.73585 23.43855,11.75585 23.78055,10.91085 C24.12155,10.06635 24.57105,9.36085 25.12805,8.79435 C25.68555,8.22835 26.32355,7.80185 27.04255,7.51385 C27.76105,7.22635 28.49855,7.08235 29.25355,7.08235 Z M68.11045,7.08235 C69.97945,7.08235 71.39945,7.63535 72.37045,8.74035 C73.34095,9.84635 73.82645,11.45935 73.82645,13.58035 C73.82645,13.79585 73.82195,14.02085 73.81295,14.25435 C73.80345,14.48785 73.78995,14.67685 73.77245,14.82035 L65.54895,14.82035 C65.54895,15.64735 65.88995,16.29935 66.57395,16.77485 C67.25645,17.25185 68.13745,17.48935 69.21595,17.48935 C69.88045,17.48935 70.51395,17.41735 71.11695,17.27335 C71.71895,17.13035 72.22645,16.98635 72.63995,16.84185 L73.09845,19.67335 C72.52295,19.87185 71.91195,20.03735 71.26495,20.17235 C70.61795,20.30685 69.88995,20.37435 69.08095,20.37435 C68.00245,20.37435 67.03595,20.23485 66.18245,19.95685 C65.32895,19.67785 64.60095,19.26435 63.99895,18.71635 C63.39645,18.16785 62.93395,17.48935 62.60995,16.68035 C62.28645,15.87185 62.12495,14.92785 62.12495,13.84985 C62.12495,12.73585 62.29545,11.75585 62.63745,10.91085 C62.97845,10.06635 63.42795,9.36085 63.98495,8.79435 C64.54245,8.22835 65.18045,7.80185 65.89945,7.51385 C66.61795,7.22635 67.35545,7.08235 68.11045,7.08235 Z M93.05555,1.5281 L93.05555,15.2786 C93.05555,16.1416 93.22605,16.7261 93.56805,17.0311 C93.90905,17.3371 94.34055,17.4896 94.86205,17.4896 C95.52655,17.4896 96.08355,17.3996 96.53355,17.2201 C96.98255,17.0406 97.27905,16.9236 97.42305,16.8696 L97.85455,19.5386 C97.80105,19.5751 97.67955,19.6376 97.49055,19.7276 C97.30205,19.8176 97.05455,19.9121 96.74905,20.0101 C96.44305,20.1096 96.07055,20.1946 95.63055,20.2666 C95.18955,20.3381 94.69055,20.3741 94.13405,20.3741 C92.60605,20.3741 91.49155,19.9206 90.79105,19.0126 C90.08955,18.1051 89.73955,16.7796 89.73955,15.0361 L89.73955,4.2781 L86.23405,4.2781 L86.23405,1.5281 L93.05555,1.5281 Z M104.8861,7.08235 C106.7551,7.08235 108.1751,7.63535 109.1461,8.74035 C110.1171,9.84635 110.6021,11.45935 110.6021,13.58035 C110.6021,13.79585 110.5976,14.02085 110.5886,14.25435 C110.5791,14.48785 110.5656,14.67685 110.5481,14.82035 L102.3246,14.82035 C102.3246,15.64735 102.6661,16.29935 103.3496,16.77485 C104.0321,17.25185 104.9136,17.48935 105.9916,17.48935 C106.6566,17.48935 107.2896,17.41735 107.8926,17.27335 C108.4946,17.13035 109.0021,16.98635 109.4156,16.84185 L109.8741,19.67335 C109.2986,19.87185 108.6876,20.03735 108.0406,20.17235 C107.3936,20.30685 106.6656,20.37435 105.8571,20.37435 C104.7781,20.37435 103.8116,20.23485 102.9581,19.95685 C102.1046,19.67785 101.3766,19.26435 100.7746,18.71635 C100.1721,18.16785 99.7096,17.48935 99.3861,16.68035 C99.0621,15.87185 98.9006,14.92785 98.9006,13.84985 C98.9006,12.73585 99.0711,11.75585 99.4131,10.91085 C99.7541,10.06635 100.2036,9.36085 100.7611,8.79435 C101.3181,8.22835 101.9561,7.80185 102.6751,7.51385 C103.3936,7.22635 104.1311,7.08235 104.8861,7.08235 Z M118.08695,7.0821 C118.91295,7.0821 119.68095,7.1456 120.39145,7.2711 C121.10145,7.3966 121.71695,7.5771 122.23795,7.8101 L121.72645,10.6146 C121.42045,10.5246 120.94395,10.3761 120.29745,10.1691 C119.64995,9.9631 118.92195,9.8596 118.11295,9.8596 C117.26845,9.8596 116.69795,9.9631 116.40145,10.1691 C116.10495,10.3761 115.95645,10.5966 115.95645,10.8296 C115.95645,11.0281 116.02395,11.2031 116.15845,11.3556 C116.29345,11.5086 116.47295,11.6481 116.69795,11.7736 C116.92245,11.9001 117.18295,12.0206 117.47945,12.1376 C117.77595,12.2546 118.09495,12.3671 118.43695,12.4746 C118.92195,12.6366 119.42445,12.8161 119.94645,13.0136 C120.46795,13.2116 120.93995,13.4586 121.36245,13.7556 C121.78445,14.0521 122.13045,14.4291 122.39995,14.8876 C122.66995,15.3461 122.80445,15.9081 122.80445,16.5726 C122.80445,17.0946 122.70595,17.5886 122.50745,18.0556 C122.31045,18.5236 121.98295,18.9276 121.52445,19.2691 C121.06595,19.6106 120.46795,19.8801 119.73095,20.0776 C118.99345,20.2751 118.08695,20.3741 117.00795,20.3741 C115.91145,20.3741 114.97645,20.2486 114.20395,19.9971 C113.43095,19.7456 112.81095,19.5206 112.34395,19.3226 L112.85595,16.5456 C113.48495,16.7981 114.15445,17.0311 114.86445,17.2471 C115.57445,17.4626 116.29745,17.5701 117.03495,17.5701 C117.84345,17.5701 118.46345,17.5121 118.89545,17.3951 C119.32645,17.2781 119.54295,17.0406 119.54295,16.6806 C119.54295,16.4471 119.47545,16.2491 119.34045,16.0871 C119.20495,15.9261 119.01695,15.7866 118.77395,15.6696 C118.53095,15.5526 118.25245,15.4406 117.93795,15.3326 C117.62345,15.2246 117.29545,15.1166 116.95395,15.0091 C116.46895,14.8651 115.97395,14.6986 115.47045,14.5106 C114.96745,14.3216 114.50945,14.0836 114.09645,13.7956 C113.68245,13.5081 113.34095,13.1441 113.07145,12.7041 C112.80195,12.2641 112.66745,11.7111 112.66745,11.0456 C112.66745,10.5071 112.77045,9.9986 112.97695,9.5226 C113.18395,9.0461 113.50695,8.6231 113.94745,8.2551 C114.38795,7.8871 114.94945,7.5991 115.63245,7.3921 C116.31595,7.1861 117.13345,7.0821 118.08695,7.0821 Z M130.47025,7.0821 C131.29675,7.0821 132.06475,7.1456 132.77475,7.2711 C133.48525,7.3966 134.10025,7.5771 134.62175,7.8101 L134.10975,10.6146 C133.80425,10.5246 133.32775,10.3761 132.68075,10.1691 C132.03325,9.9631 131.30575,9.8596 130.49625,9.8596 C129.65175,9.8596 129.08175,9.9631 128.78475,10.1691 C128.48875,10.3761 128.33975,10.5966 128.33975,10.8296 C128.33975,11.0281 128.40725,11.2031 128.54175,11.3556 C128.67675,11.5086 128.85625,11.6481 129.08175,11.7736 C129.30625,11.9001 129.56625,12.0206 129.86325,12.1376 C130.15925,12.2546 130.47875,12.3671 130.82025,12.4746 C131.30575,12.6366 131.80825,12.8161 132.33025,13.0136 C132.85125,13.2116 133.32325,13.4586 133.74575,13.7556 C134.16775,14.0521 134.51375,14.4291 134.78325,14.8876 C135.05325,15.3461 135.18775,15.9081 135.18775,16.5726 C135.18775,17.0946 135.08975,17.5886 134.89125,18.0556 C134.69375,18.5236 134.36625,18.9276 133.90775,19.2691 C133.44975,19.6106 132.85125,19.8801 132.11425,20.0776 C131.37675,20.2751 130.47025,20.3741 129.39125,20.3741 C128.29475,20.3741 127.36025,20.2486 126.58725,19.9971 C125.81425,19.7456 125.19425,19.5206 124.72725,19.3226 L125.23925,16.5456 C125.86825,16.7981 126.53775,17.0311 127.24775,17.2471 C127.95775,17.4626 128.68125,17.5701 129.41875,17.5701 C130.22675,17.5701 130.84725,17.5121 131.27875,17.3951 C131.70975,17.2781 131.92625,17.0406 131.92625,16.6806 C131.92625,16.4471 131.85875,16.2491 131.72375,16.0871 C131.58825,15.9261 131.40025,15.7866 131.15725,15.6696 C130.91475,15.5526 130.63625,15.4406 130.32175,15.3326 C130.00725,15.2246 129.67875,15.1166 129.33725,15.0091 C128.85225,14.8651 128.35775,14.6986 127.85425,14.5106 C127.35075,14.3216 126.89325,14.0836 126.47975,13.7956 C126.06625,13.5081 125.72425,13.1441 125.45475,12.7041 C125.18575,12.2641 125.05125,11.7111 125.05125,11.0456 C125.05125,10.5071 125.15425,9.9986 125.36075,9.5226 C125.56725,9.0461 125.89025,8.6231 126.33075,8.2551 C126.77175,7.8871 127.33275,7.5991 128.01575,7.3921 C128.69925,7.1861 129.51675,7.0821 130.47025,7.0821 Z M43.52965,7.1629 C43.70915,7.1629 43.96515,7.1724 44.29765,7.1899 C44.63065,7.2084 44.98565,7.2394 45.36315,7.2844 C45.74065,7.3294 46.12215,7.3834 46.50865,7.4464 C46.89515,7.5099 47.24115,7.5944 47.54715,7.7029 L46.95365,10.7764 C46.73815,10.7219 46.48215,10.6679 46.18565,10.6144 C45.88915,10.5604 45.58765,10.5114 45.28215,10.4659 C44.97615,10.4219 44.67965,10.3899 44.39215,10.3714 C44.10465,10.3544 43.86165,10.3449 43.66415,10.3449 C43.19665,10.3449 42.73865,10.3674 42.28965,10.4124 C41.83965,10.4574 41.38165,10.5424 40.91465,10.6679 L40.91465,20.0779 L37.57115,20.0779 L37.57115,8.2419 C38.45165,7.9179 39.35465,7.6579 40.28065,7.4594 C41.20665,7.2619 42.28965,7.1629 43.52965,7.1629 Z M52.3865,7.4062 C52.548,8.0892 52.7405,8.8172 52.966,9.5897 C53.1905,10.3627 53.4285,11.1402 53.6805,11.9217 C53.932,12.7037 54.1885,13.4632 54.449,14.2002 C54.7095,14.9372 54.9565,15.6117 55.19,16.2227 C55.424,15.6117 55.6845,14.9372 55.972,14.2002 C56.2595,13.4632 56.5425,12.7037 56.8215,11.9217 C57.1,11.1402 57.3695,10.3627 57.6305,9.5897 C57.8905,8.8172 58.102,8.0892 58.264,7.4062 L61.634,7.4062 C60.879,9.9587 60.0435,12.3087 59.1265,14.4562 C58.21,16.6047 57.3475,18.4787 56.5385,20.0777 L53.7615,20.0777 C52.9525,18.4787 52.13,16.6047 51.294,14.4562 C50.459,12.3087 49.6635,9.9587 48.908,7.4062 L52.3865,7.4062 Z M82.3866,7.1629 C82.5661,7.1629 82.8221,7.1724 83.1546,7.1899 C83.4876,7.2084 83.8426,7.2394 84.2201,7.2844 C84.5976,7.3294 84.9791,7.3834 85.3656,7.4464 C85.7521,7.5099 86.0981,7.5944 86.4041,7.7029 L85.8106,10.7764 C85.5951,10.7219 85.3391,10.6679 85.0426,10.6144 C84.7461,10.5604 84.4446,10.5114 84.1391,10.4659 C83.8331,10.4219 83.5366,10.3899 83.2491,10.3714 C82.9616,10.3544 82.7186,10.3449 82.5211,10.3449 C82.0536,10.3449 81.5956,10.3674 81.1466,10.4124 C80.6966,10.4574 80.2381,10.5424 79.7716,10.6679 L79.7716,20.0779 L76.4281,20.0779 L76.4281,8.2419 C77.3086,7.9179 78.2116,7.6579 79.1376,7.4594 C80.0636,7.2619 81.1466,7.1629 82.3866,7.1629 Z M29.30755,9.85935 C28.87605,9.85935 28.50255,9.93135 28.18805,10.07535 C27.87405,10.21935 27.61305,10.41685 27.40655,10.66785 C27.19955,10.92035 27.03805,11.20735 26.92155,11.53135 C26.80405,11.85435 26.72805,12.18735 26.69205,12.52885 L31.76105,12.52885 C31.76105,12.18735 31.71605,11.85885 31.62605,11.54435 C31.53605,11.22985 31.39255,10.94735 31.19455,10.69485 C30.99705,10.44435 30.74555,10.24135 30.44005,10.08885 C30.13405,9.93585 29.75655,9.85935 29.30755,9.85935 Z M68.16445,9.85935 C67.73295,9.85935 67.35945,9.93135 67.04495,10.07535 C66.73095,10.21935 66.46995,10.41685 66.26345,10.66785 C66.05645,10.92035 65.89495,11.20735 65.77845,11.53135 C65.66095,11.85435 65.58495,12.18735 65.54895,12.52885 L70.61795,12.52885 C70.61795,12.18735 70.57295,11.85885 70.48295,11.54435 C70.39295,11.22985 70.24945,10.94735 70.05145,10.69485 C69.85345,10.44435 69.60245,10.24135 69.29695,10.08885 C68.99095,9.93585 68.61345,9.85935 68.16445,9.85935 Z M104.9401,9.85935 C104.5086,9.85935 104.1351,9.93135 103.8211,10.07535 C103.5066,10.21935 103.2456,10.41685 103.0391,10.66785 C102.8326,10.92035 102.6706,11.20735 102.5541,11.53135 C102.4366,11.85435 102.3606,12.18735 102.3246,12.52885 L107.3936,12.52885 C107.3936,12.18735 107.3486,11.85885 107.2586,11.54435 C107.1686,11.22985 107.0251,10.94735 106.8271,10.69485 C106.6296,10.44435 106.3781,10.24135 106.0726,10.08885 C105.7666,9.93585 105.3891,9.85935 104.9401,9.85935 Z" id="Combined-Shape" fill="#312734"></path>
            <path d="M18.22635,22.78735 C18.66435,22.78735 19.01935,23.14185 19.01935,23.58035 C19.01935,24.01885 18.66435,24.37335 18.22635,24.37335 L12.67535,24.37335 C12.23735,24.37335 11.88235,24.01885 11.88235,23.58035 C11.88235,23.14185 12.23735,22.78735 12.67535,22.78735 L18.22635,22.78735 Z M28.53535,22.78735 C28.97335,22.78735 29.32835,23.14185 29.32835,23.58035 C29.32835,24.01885 28.97335,24.37335 28.53535,24.37335 L22.98435,24.37335 C22.54635,24.37335 22.19135,24.01885 22.19135,23.58035 C22.19135,23.14185 22.54635,22.78735 22.98435,22.78735 L28.53535,22.78735 Z M38.84435,22.78735 C39.28185,22.78735 39.63735,23.14185 39.63735,23.58035 C39.63735,24.01885 39.28185,24.37335 38.84435,24.37335 L33.29335,24.37335 C32.85535,24.37335 32.50035,24.01885 32.50035,23.58035 C32.50035,23.14185 32.85535,22.78735 33.29335,22.78735 L38.84435,22.78735 Z M49.15335,22.78735 C49.59085,22.78735 49.94585,23.14185 49.94585,23.58035 C49.94585,24.01885 49.59085,24.37335 49.15335,24.37335 L43.60185,24.37335 C43.16385,24.37335 42.80935,24.01885 42.80935,23.58035 C42.80935,23.14185 43.16385,22.78735 43.60185,22.78735 L49.15335,22.78735 Z" id="Combined-Shape" fill="#5267FF"></path>
            <path d="M59.46185,22.78735 C59.89985,22.78735 60.25485,23.14185 60.25485,23.58035 C60.25485,24.01885 59.89985,24.37335 59.46185,24.37335 L53.91085,24.37335 C53.47285,24.37335 53.11785,24.01885 53.11785,23.58035 C53.11785,23.14185 53.47285,22.78735 53.91085,22.78735 L59.46185,22.78735 Z M69.77085,22.78735 C70.20885,22.78735 70.56385,23.14185 70.56385,23.58035 C70.56385,24.01885 70.20885,24.37335 69.77085,24.37335 L64.21985,24.37335 C63.78185,24.37335 63.42685,24.01885 63.42685,23.58035 C63.42685,23.14185 63.78185,22.78735 64.21985,22.78735 L69.77085,22.78735 Z M80.07985,22.78735 C80.51785,22.78735 80.87235,23.14185 80.87235,23.58035 C80.87235,24.01885 80.51785,24.37335 80.07985,24.37335 L74.52885,24.37335 C74.09085,24.37335 73.73585,24.01885 73.73585,23.58035 C73.73585,23.14185 74.09085,22.78735 74.52885,22.78735 L80.07985,22.78735 Z M90.38835,22.78735 C90.82635,22.78735 91.18135,23.14185 91.18135,23.58035 C91.18135,24.01885 90.82635,24.37335 90.38835,24.37335 L84.83785,24.37335 C84.39985,24.37335 84.04485,24.01885 84.04485,23.58035 C84.04485,23.14185 84.39985,22.78735 84.83785,22.78735 L90.38835,22.78735 Z" id="Combined-Shape" fill="#EFF4FF"></path>
            <path d="M100.69735,22.78735 C101.13535,22.78735 101.49035,23.14185 101.49035,23.58035 C101.49035,24.01885 101.13535,24.37335 100.69735,24.37335 L95.14635,24.37335 C94.70835,24.37335 94.35335,24.01885 94.35335,23.58035 C94.35335,23.14185 94.70835,22.78735 95.14635,22.78735 L100.69735,22.78735 Z M111.00635,22.78735 C111.44435,22.78735 111.79935,23.14185 111.79935,23.58035 C111.79935,24.01885 111.44435,24.37335 111.00635,24.37335 L105.45535,24.37335 C105.01735,24.37335 104.66235,24.01885 104.66235,23.58035 C104.66235,23.14185 105.01735,22.78735 105.45535,22.78735 L111.00635,22.78735 Z M121.31535,22.78735 C121.75385,22.78735 122.10835,23.14185 122.10835,23.58035 C122.10835,24.01885 121.75385,24.37335 121.31535,24.37335 L115.76435,24.37335 C115.32585,24.37335 114.97135,24.01885 114.97135,23.58035 C114.97135,23.14185 115.32585,22.78735 115.76435,22.78735 L121.31535,22.78735 Z M131.62385,22.78735 C132.06235,22.78735 132.41685,23.14185 132.41685,23.58035 C132.41685,24.01885 132.06235,24.37335 131.62385,24.37335 L126.07285,24.37335 C125.63435,24.37335 125.27985,24.01885 125.27985,23.58035 C125.27985,23.14185 125.63435,22.78735 126.07285,22.78735 L131.62385,22.78735 Z" id="Combined-Shape" fill="#FE7B55"></path>
            <polygon id="Path" fill="#5267FF" points="145.7408 23.7895 153.378227 4.4408921e-14 224.6275 4.4408921e-14 216.928 23.7895"></polygon>
            <path d="M205.39575,4.25285 C207.74875,4.25285 209.70325,4.96285 211.16875,6.31735 L209.41475,8.62635 C208.21625,7.51685 206.61675,7.00585 205.17325,7.00585 C203.75225,7.00585 202.99775,7.62735 202.99775,8.51585 C202.99775,9.473225 204.139325,9.79919809 205.739488,10.1763147 L206.68114,10.3953254 C208.970199,10.947267 211.50175,11.8339354 211.50175,14.79935 C211.50175,17.50785 209.57075,19.55085 205.57375,19.55085 C202.73175,19.55085 200.68875,18.59635 199.28925,17.19735 L201.02175,14.79935 C202.06475,15.88735 203.68575,16.79735 205.72875,16.79735 C207.46075,16.79735 208.30425,15.97635 208.30425,15.13235 C208.30425,14.02235 207.01625,13.64435 205.30725,13.24535 L204.582572,13.0772586 C202.309393,12.5347518 199.77825,11.7011183 199.77825,8.71585 C199.77825,6.25085 201.90975,4.25285 205.39575,4.25285 Z M163.8025,4.4748 C168.4425,4.4748 171.6625,7.4278 171.6625,11.8908 C171.6625,16.3533 168.4425,19.2848 163.8025,19.2848 L157.9625,19.2848 L157.9625,4.4748 L163.8025,4.4748 Z M181.31875,4.47505 L187.02425,19.28455 L183.58275,19.28455 L182.65075,16.73055 L176.03375,16.73055 L175.10075,19.28455 L171.63775,19.28455 L177.36625,4.47505 L181.31875,4.47505 Z M188.64515,4.4747 L192.33115,10.4257 L195.97265,4.4747 L199.56965,4.4747 L193.90815,13.2227 L193.90815,19.2847 L190.75465,19.2847 L190.75465,13.2227 L185.04915,4.4747 L188.64515,4.4747 Z M163.8025,7.2503 L161.116,7.2503 L161.116,16.5093 L163.8025,16.5093 C166.7335,16.5093 168.4425,14.3998 168.4425,11.8908 C168.4425,9.2708 166.844,7.2503 163.8025,7.2503 Z M179.34225,7.20555 L176.87725,14.00005 L181.78475,14.00005 L179.34225,7.20555 Z" id="Shape" fill="#FFFFFF"></path>
        </g>
        <g id="Group" transform="translate(149.983358, 28.040249)" fill-rule="nonzero">
            <path d="M1.70651583,9.27481835 L1.70651583,6.04576052 L2.98798868,6.04576052 C3.58431763,6.04576052 4.10451948,5.97174807 4.54859423,5.82372315 C4.99266898,5.67569823 5.36273127,5.46846335 5.6587811,5.2020185 C5.95483093,4.93557365 6.17686831,4.61732008 6.32489323,4.24725779 C6.47291814,3.8771955 6.5469306,3.47012697 6.5469306,3.02605222 C6.5469306,2.59889461 6.47714743,2.20557126 6.33758108,1.84608217 C6.19801473,1.48659309 5.98232128,1.17785541 5.69050073,0.919869125 C5.39868018,0.661882842 5.02861788,0.460991883 4.58031385,0.31719625 C4.13200982,0.173400617 3.60123476,0.1015028 2.98798868,0.1015028 L2.98798868,0.1015028 L1.84741111e-13,0.1015028 L1.84741111e-13,9.27481835 L1.70651583,9.27481835 Z M2.98798868,4.71353627 L1.70651583,4.71353627 L1.70651583,1.4210392 L2.98798868,1.4210392 C3.30095564,1.4210392 3.57374442,1.45804543 3.806355,1.53205789 C4.03896558,1.60607035 4.23139798,1.71285975 4.38365218,1.8524261 C4.53590638,1.99199245 4.65009703,2.16116378 4.72622413,2.3599401 C4.80235123,2.55871642 4.84041478,2.78075379 4.84041478,3.02605222 C4.84041478,3.28403851 4.80235123,3.51770641 4.72622413,3.72705594 C4.65009703,3.93640546 4.53590638,4.11403536 4.38365218,4.25994564 C4.23139798,4.40585591 4.03896558,4.51793192 3.806355,4.59617366 C3.57374442,4.6744154 3.30095564,4.71353627 2.98798868,4.71353627 L2.98798868,4.71353627 Z M6.69741601,9.27481835 C6.84121164,9.27481835 6.96280354,9.23464016 7.0621917,9.15428377 C7.16157985,9.07392739 7.22819107,8.98511244 7.26202533,8.88783892 L7.26202533,8.88783892 L7.94716923,7.01638105 L11.7471803,7.01638105 L12.4323242,8.88783892 C12.474617,8.99780029 12.5433429,9.0897872 12.6385018,9.16379966 C12.7336606,9.23781212 12.8552525,9.27481835 13.0032775,9.27481835 L13.0032775,9.27481835 L14.3228139,9.27481835 L10.7194645,0.1015028 L8.97488508,0.1015028 L5.37153568,9.27481835 L6.69741601,9.27481835 Z M11.3094495,5.8110353 L8.38490006,5.8110353 L9.50143086,2.77229522 C9.55641154,2.63272887 9.61244955,2.46990147 9.66954487,2.283813 C9.7266402,2.09772453 9.78479284,1.89683357 9.84400281,1.68114012 C9.90321278,1.89683357 9.96348006,2.09666721 10.0248047,2.28064104 C10.0861293,2.46461486 10.1421673,2.62427031 10.1929187,2.75960737 L10.1929187,2.75960737 L11.3094495,5.8110353 Z M17.0311698,9.27481835 L17.0311698,5.69050072 L17.7607212,5.69050072 C17.9298925,5.69050072 18.0578284,5.71376178 18.1445287,5.7602839 C18.231229,5.80680602 18.310528,5.88504776 18.3824259,5.99500912 L18.3824259,5.99500912 L20.3109791,8.9322464 C20.3828769,9.04220777 20.4706345,9.12679343 20.5742519,9.1860034 C20.6778694,9.24521337 20.8036906,9.27481835 20.9517155,9.27481835 L20.9517155,9.27481835 L22.4869453,9.27481835 L20.1904445,5.8871624 C20.033961,5.6587811 19.8478725,5.48326584 19.6321791,5.36061662 C19.9536046,5.25911382 20.2401386,5.12377676 20.4917809,4.95460542 C20.7434233,4.78543409 20.9548874,4.58877242 21.1261734,4.3646204 C21.2974594,4.14046838 21.4285672,3.89094067 21.5194968,3.61603725 C21.6104264,3.34113383 21.6558912,3.04931328 21.6558912,2.7405756 C21.6558912,2.35148153 21.5892799,1.99516441 21.4560575,1.67162424 C21.3228351,1.34808406 21.1134856,1.07000868 20.8280089,0.8373981 C20.5425323,0.604787517 20.1766993,0.423985654 19.7305099,0.294992512 C19.2843205,0.165999371 18.7482589,0.1015028 18.1223249,0.1015028 L18.1223249,0.1015028 L15.324654,0.1015028 L15.324654,9.27481835 L17.0311698,9.27481835 Z M18.0969492,4.4661232 L17.0311698,4.4661232 L17.0311698,1.4210392 L18.1223249,1.4210392 C18.7524882,1.4210392 19.2208813,1.54580306 19.5275043,1.79533077 C19.8341274,2.04485849 19.9874389,2.40223293 19.9874389,2.8674541 C19.9874389,3.10006468 19.9493753,3.31364349 19.8732482,3.50819052 C19.7971211,3.70273756 19.6818732,3.87085157 19.5275043,4.01253256 C19.3731355,4.15421355 19.1764738,4.26523224 18.9375193,4.34558862 C18.6985648,4.42594501 18.4183748,4.4661232 18.0969492,4.4661232 L18.0969492,4.4661232 Z M25.4998097,9.27481835 L25.4998097,0.1015028 L23.78695,0.1015028 L23.78695,9.27481835 L25.4998097,9.27481835 Z M29.876618,9.37632115 C30.384132,9.37632115 30.8345506,9.29913673 31.227874,9.14476789 C31.6211973,8.99039905 31.9542534,8.77893488 32.2270422,8.51037539 C32.4998309,8.2418159 32.7070658,7.92673429 32.8487468,7.56513056 C32.9904278,7.20352684 33.0612683,6.81549009 33.0612683,6.40102032 C33.0612683,6.02038482 33.001001,5.69684465 32.8804664,5.4303998 C32.7599319,5.16395495 32.6002764,4.93874561 32.4015001,4.75477179 C32.2027238,4.57079796 31.9764571,4.41854376 31.7227001,4.29800919 C31.4689431,4.17747461 31.2098995,4.07174253 30.9455693,3.98081294 C30.6812391,3.88988335 30.4221955,3.80424036 30.1684385,3.72388397 C29.9146815,3.64352759 29.6884148,3.552598 29.4896385,3.4510952 C29.2908622,3.3495924 29.1312068,3.22694318 29.0106722,3.08314755 C28.8901376,2.93935192 28.8298703,2.75960737 28.8298703,2.54391392 C28.8298703,2.37474259 28.8594753,2.21931643 28.9186853,2.07763544 C28.9778952,1.93595445 29.0677675,1.81436255 29.1883021,1.71285975 C29.3088367,1.61135695 29.4568616,1.53205789 29.6323768,1.47496256 C29.8078921,1.41786724 30.0140697,1.38931957 30.2509095,1.38931957 C30.5131251,1.38931957 30.7404491,1.42209652 30.9328815,1.48765041 C31.1253139,1.5532043 31.2934279,1.62615944 31.4372235,1.70651582 C31.5810191,1.78687221 31.705783,1.85982735 31.8115151,1.92538124 C31.9172472,1.99093513 32.012406,2.02371207 32.0969917,2.02371207 C32.1815774,2.02371207 32.2545325,2.0046803 32.3158571,1.96661675 C32.3771817,1.9285532 32.4311051,1.86299931 32.4776272,1.76995507 L32.4776272,1.76995507 L32.8963263,0.9642766 C32.5749007,0.6597682 32.1858067,0.422928333 31.7290441,0.253757 C31.2722815,0.0845856667 30.773226,-1.77635684e-14 30.2318778,-1.77635684e-14 C29.7539687,-1.77635684e-14 29.3289258,0.0740124583 28.9567488,0.222037375 C28.5845719,0.370062292 28.2705476,0.566723967 28.014676,0.8120224 C27.7588043,1.05732083 27.5642573,1.33856817 27.4310349,1.65576442 C27.2978124,1.97296067 27.2312012,2.29861549 27.2312012,2.63272887 C27.2312012,3.05142792 27.2914685,3.40351576 27.4120031,3.68899239 C27.5325377,3.97446901 27.6921931,4.2123662 27.8909694,4.40268395 C28.0897457,4.5930017 28.3160124,4.74737054 28.5697694,4.86579047 C28.8235264,4.98421041 29.0815127,5.08571321 29.3437283,5.17029887 C29.6059438,5.25488454 29.8639301,5.33312628 30.1176871,5.4050241 C30.3714441,5.47692192 30.5977108,5.56467955 30.7964871,5.66829699 C30.9952634,5.77191443 31.1549188,5.89985025 31.2754534,6.05210445 C31.395988,6.20435865 31.4562553,6.40102032 31.4562553,6.64208947 C31.4562553,7.07347637 31.3230329,7.4044178 31.056588,7.63491374 C30.7901432,7.86540968 30.4137369,7.98065765 29.9273694,7.98065765 C29.6101731,7.98065765 29.3384417,7.9373075 29.112175,7.85060719 C28.8859083,7.76390688 28.6892467,7.66769068 28.52219,7.5619586 C28.3551333,7.45622652 28.2102803,7.36001032 28.0876311,7.27331001 C27.9649819,7.1866097 27.8507912,7.14325955 27.7450592,7.14325955 C27.6647028,7.14325955 27.5917476,7.16334865 27.5261937,7.20352684 C27.4606399,7.24370503 27.4046018,7.29339911 27.3580797,7.35260907 L27.3580797,7.35260907 L26.8632536,8.1709754 C27.0408835,8.35283458 27.2428318,8.51777663 27.4690984,8.66580155 C27.6953651,8.81382647 27.9385489,8.94070497 28.1986498,9.04643705 C28.4587507,9.15216913 28.7304822,9.23358284 29.0138442,9.29067816 C29.2972061,9.34777349 29.5847974,9.37632115 29.876618,9.37632115 Z" id="PARIS" fill="#353E46"></path>
            <path d="M43.5173838,9.27481835 L43.5173838,8.33591745 C43.5173838,8.17943397 43.4676897,8.05361279 43.3683015,7.95845391 C43.2689134,7.86329504 43.1346336,7.8157156 42.9654623,7.8157156 L42.9654623,7.8157156 L40.6118661,7.8157156 C40.4342362,7.8157156 40.2481478,7.83157541 40.0536007,7.86329504 C39.8590537,7.89501466 39.6602774,7.94047946 39.4572718,7.99968942 L39.4572718,7.99968942 L41.5253913,5.8871624 C41.7706898,5.6334054 42.005415,5.38387768 42.229567,5.13857925 C42.453719,4.89328082 42.6493234,4.63952382 42.8163801,4.37730825 C42.9834368,4.11509268 43.1166592,3.84018927 43.2160473,3.552598 C43.3154355,3.26500673 43.3651296,2.95203977 43.3651296,2.6136971 C43.3651296,2.22037375 43.2953464,1.86299931 43.15578,1.54157377 C43.0162137,1.22014824 42.8216667,0.945244825 42.5721389,0.716863525 C42.3226112,0.488482225 42.0223321,0.311909646 41.6713016,0.187145787 C41.3202711,0.0623819292 40.9332917,-1.77635684e-14 40.5103633,-1.77635684e-14 C40.1043521,-1.77635684e-14 39.7247739,0.0560380042 39.3716288,0.168114012 C39.0184836,0.280190021 38.7055167,0.447246712 38.4327279,0.669284087 C38.1599391,0.891321462 37.9326151,1.16833952 37.7507559,1.50033826 C37.5688968,1.832337 37.4462475,2.21825911 37.3828083,2.65810457 L37.3828083,2.65810457 L38.2075185,2.80401485 C38.2836456,2.8167027 38.3534288,2.82304662 38.4168681,2.82304662 C38.5606637,2.82304662 38.6790836,2.78815504 38.7721279,2.71837186 C38.8651721,2.64858869 38.9349553,2.53334072 38.9814774,2.37262795 C39.0787509,2.05120242 39.2489796,1.79533077 39.4921634,1.60501302 C39.7353472,1.41469527 40.0451422,1.3195364 40.4215484,1.3195364 C40.624554,1.3195364 40.8074705,1.34808406 40.9702979,1.40517939 C41.1331253,1.46227471 41.273749,1.5479177 41.3921689,1.66210835 C41.5105888,1.776299 41.6015184,1.91692267 41.6649577,2.08397936 C41.7283969,2.25103605 41.7601165,2.44452577 41.7601165,2.6644485 C41.7601165,2.90551765 41.7273396,3.13495627 41.6617857,3.35276436 C41.5962318,3.57057245 41.5010729,3.78520858 41.3763091,3.99667275 C41.2515452,4.20813692 41.0971764,4.42171572 40.9132026,4.63740917 C40.7292287,4.85310262 40.5209365,5.07936928 40.2883259,5.31620915 L40.2883259,5.31620915 L37.5033429,8.10753615 C37.4060694,8.20480967 37.3352289,8.31054175 37.2908214,8.4247324 C37.2464139,8.53892305 37.2242102,8.64888442 37.2242102,8.7546165 L37.2242102,8.7546165 L37.2242102,9.27481835 L43.5173838,9.27481835 Z M47.7130621,9.37632115 C48.1909711,9.37632115 48.6361032,9.2822196 49.0484583,9.09401649 C49.4608135,8.90581338 49.8181879,8.61927943 50.1205817,8.23441465 C50.4229754,7.84954987 50.6598153,7.36212496 50.8311013,6.77213994 C51.0023872,6.18215491 51.0880302,5.48749512 51.0880302,4.68816057 C51.0880302,3.88459674 51.0023872,3.18887963 50.8311013,2.60100925 C50.6598153,2.01313887 50.4229754,1.52677128 50.1205817,1.1419065 C49.8181879,0.757041717 49.4608135,0.470507771 49.0484583,0.282304662 C48.6361032,0.0941015542 48.1909711,-1.77635684e-14 47.7130621,-1.77635684e-14 C47.2351531,-1.77635684e-14 46.7921357,0.0941015542 46.3840098,0.282304662 C45.975884,0.470507771 45.6216815,0.757041717 45.3214024,1.1419065 C45.0211233,1.52677128 44.7863981,2.01313887 44.6172267,2.60100925 C44.4480554,3.18887963 44.3634697,3.88459674 44.3634697,4.68816057 C44.3634697,5.48749512 44.4480554,6.18215491 44.6172267,6.77213994 C44.7863981,7.36212496 45.0211233,7.84954987 45.3214024,8.23441465 C45.6216815,8.61927943 45.975884,8.90581338 46.3840098,9.09401649 C46.7921357,9.2822196 47.2351531,9.37632115 47.7130621,9.37632115 Z M47.7130621,8.07581652 C47.4889101,8.07581652 47.2721593,8.0240078 47.0628098,7.92039036 C46.8534603,7.81677292 46.6684291,7.63597106 46.5077164,7.37798477 C46.3470036,7.11999849 46.2190678,6.77319726 46.1239089,6.33758107 C46.02875,5.90196489 45.9811706,5.35215806 45.9811706,4.68816057 C45.9811706,4.02416309 46.02875,3.47435626 46.1239089,3.03874007 C46.2190678,2.60312389 46.3470036,2.25632266 46.5077164,1.99833637 C46.6684291,1.74035009 46.8534603,1.55954823 47.0628098,1.45593079 C47.2721593,1.35231335 47.4889101,1.30050462 47.7130621,1.30050462 C47.9414434,1.30050462 48.1613662,1.35231335 48.3728303,1.45593079 C48.5842945,1.55954823 48.7714403,1.74035009 48.9342677,1.99833637 C49.0970951,2.25632266 49.2271456,2.60312389 49.3244191,3.03874007 C49.4216926,3.47435626 49.4703293,4.02416309 49.4703293,4.68816057 C49.4703293,5.35215806 49.4216926,5.90196489 49.3244191,6.33758107 C49.2271456,6.77319726 49.0970951,7.11999849 48.9342677,7.37798477 C48.7714403,7.63597106 48.5842945,7.81677292 48.3728303,7.92039036 C48.1613662,8.0240078 47.9414434,8.07581652 47.7130621,8.07581652 Z M58.0458535,9.27481835 L58.0458535,8.33591745 C58.0458535,8.17943397 57.9961594,8.05361279 57.8967713,7.95845391 C57.7973831,7.86329504 57.6631034,7.8157156 57.4939321,7.8157156 L57.4939321,7.8157156 L55.1403359,7.8157156 C54.962706,7.8157156 54.7766175,7.83157541 54.5820705,7.86329504 C54.3875234,7.89501466 54.1887471,7.94047946 53.9857415,7.99968942 L53.9857415,7.99968942 L56.0538611,5.8871624 C56.2991595,5.6334054 56.5338847,5.38387768 56.7580368,5.13857925 C56.9821888,4.89328082 57.1777931,4.63952382 57.3448498,4.37730825 C57.5119065,4.11509268 57.6451289,3.84018927 57.7445171,3.552598 C57.8439052,3.26500673 57.8935993,2.95203977 57.8935993,2.6136971 C57.8935993,2.22037375 57.8238162,1.86299931 57.6842498,1.54157377 C57.5446835,1.22014824 57.3501364,0.945244825 57.1006087,0.716863525 C56.851081,0.488482225 56.5508019,0.311909646 56.1997714,0.187145787 C55.8487408,0.0623819292 55.4617614,-1.77635684e-14 55.0388331,-1.77635684e-14 C54.6328219,-1.77635684e-14 54.2532437,0.0560380042 53.9000985,0.168114012 C53.5469534,0.280190021 53.2339864,0.447246712 52.9611976,0.669284087 C52.6884089,0.891321462 52.4610849,1.16833952 52.2792257,1.50033826 C52.0973665,1.832337 51.9747173,2.21825911 51.9112781,2.65810457 L51.9112781,2.65810457 L52.7359883,2.80401485 C52.8121154,2.8167027 52.8818986,2.82304662 52.9453378,2.82304662 C53.0891335,2.82304662 53.2075534,2.78815504 53.3005976,2.71837186 C53.3936419,2.64858869 53.463425,2.53334072 53.5099472,2.37262795 C53.6072207,2.05120242 53.7774493,1.79533077 54.0206331,1.60501302 C54.2638169,1.41469527 54.5736119,1.3195364 54.9500181,1.3195364 C55.1530237,1.3195364 55.3359402,1.34808406 55.4987676,1.40517939 C55.661595,1.46227471 55.8022187,1.5479177 55.9206387,1.66210835 C56.0390586,1.776299 56.1299882,1.91692267 56.1934274,2.08397936 C56.2568667,2.25103605 56.2885863,2.44452577 56.2885863,2.6644485 C56.2885863,2.90551765 56.2558094,3.13495627 56.1902555,3.35276436 C56.1247016,3.57057245 56.0295427,3.78520858 55.9047788,3.99667275 C55.780015,4.20813692 55.6256461,4.42171572 55.4416723,4.63740917 C55.2576985,4.85310262 55.0494063,5.07936928 54.8167957,5.31620915 L54.8167957,5.31620915 L52.0318126,8.10753615 C51.9345391,8.20480967 51.8636986,8.31054175 51.8192911,8.4247324 C51.7748837,8.53892305 51.7526799,8.64888442 51.7526799,8.7546165 L51.7526799,8.7546165 L51.7526799,9.27481835 L58.0458535,9.27481835 Z M62.2415319,9.37632115 C62.7194409,9.37632115 63.164573,9.2822196 63.5769281,9.09401649 C63.9892832,8.90581338 64.3466577,8.61927943 64.6490514,8.23441465 C64.9514452,7.84954987 65.188285,7.36212496 65.359571,6.77213994 C65.530857,6.18215491 65.6165,5.48749512 65.6165,4.68816057 C65.6165,3.88459674 65.530857,3.18887963 65.359571,2.60100925 C65.188285,2.01313887 64.9514452,1.52677128 64.6490514,1.1419065 C64.3466577,0.757041717 63.9892832,0.470507771 63.5769281,0.282304662 C63.164573,0.0941015542 62.7194409,-1.77635684e-14 62.2415319,-1.77635684e-14 C61.7636229,-1.77635684e-14 61.3206054,0.0941015542 60.9124796,0.282304662 C60.5043537,0.470507771 60.1501513,0.757041717 59.8498722,1.1419065 C59.549593,1.52677128 59.3148678,2.01313887 59.1456965,2.60100925 C58.9765251,3.18887963 58.8919395,3.88459674 58.8919395,4.68816057 C58.8919395,5.48749512 58.9765251,6.18215491 59.1456965,6.77213994 C59.3148678,7.36212496 59.549593,7.84954987 59.8498722,8.23441465 C60.1501513,8.61927943 60.5043537,8.90581338 60.9124796,9.09401649 C61.3206054,9.2822196 61.7636229,9.37632115 62.2415319,9.37632115 Z M62.2415319,8.07581652 C62.0173799,8.07581652 61.8006291,8.0240078 61.5912796,7.92039036 C61.38193,7.81677292 61.1968989,7.63597106 61.0361861,7.37798477 C60.8754734,7.11999849 60.7475375,6.77319726 60.6523787,6.33758107 C60.5572198,5.90196489 60.5096404,5.35215806 60.5096404,4.68816057 C60.5096404,4.02416309 60.5572198,3.47435626 60.6523787,3.03874007 C60.7475375,2.60312389 60.8754734,2.25632266 61.0361861,1.99833637 C61.1968989,1.74035009 61.38193,1.55954823 61.5912796,1.45593079 C61.8006291,1.35231335 62.0173799,1.30050462 62.2415319,1.30050462 C62.4699132,1.30050462 62.6898359,1.35231335 62.9013001,1.45593079 C63.1127642,1.55954823 63.29991,1.74035009 63.4627374,1.99833637 C63.6255648,2.25632266 63.7556153,2.60312389 63.8528888,3.03874007 C63.9501623,3.47435626 63.9987991,4.02416309 63.9987991,4.68816057 C63.9987991,5.35215806 63.9501623,5.90196489 63.8528888,6.33758107 C63.7556153,6.77319726 63.6255648,7.11999849 63.4627374,7.37798477 C63.29991,7.63597106 63.1127642,7.81677292 62.9013001,7.92039036 C62.6898359,8.0240078 62.4699132,8.07581652 62.2415319,8.07581652 Z" id="2020" fill="#231F20"></path>
        </g>
    </g>
</svg>