<svg xmlns="http://www.w3.org/2000/svg" width="225" height="40" viewBox="0 0 225 40">
    <g fill="none" fill-rule="evenodd">
        <path fill="#312734" d="M10.947 3.1L3.45 26.393H0L7.551 3.099h3.396zm136.23 0l-7.494 23.294h-3.451l7.55-23.294h3.396zM16.83 10.082c.827 0 1.595.064 2.305.19.71.125 1.326.305 1.847.538l-.512 2.805a72.04 72.04 0 0 1-1.429-.446c-.647-.206-1.375-.31-2.184-.31-.845 0-1.415.104-1.712.31-.296.207-.445.428-.445.66 0 .2.068.374.202.527.135.153.315.292.54.418.224.126.485.247.782.364.296.117.615.23.957.337.485.162.988.341 1.51.539.52.198.993.445 1.415.742.422.296.769.673 1.038 1.132.27.458.404 1.02.404 1.685 0 .522-.098 1.016-.296 1.483-.198.468-.526.872-.984 1.213-.458.342-1.056.611-1.793.809-.738.197-1.645.296-2.723.296-1.097 0-2.032-.125-2.804-.377a23.939 23.939 0 0 1-1.86-.674l.512-2.777c.629.252 1.298.485 2.008.701a7.43 7.43 0 0 0 2.17.323c.81 0 1.43-.058 1.861-.175.431-.117.647-.354.647-.714a.897.897 0 0 0-.202-.594 1.674 1.674 0 0 0-.566-.417 7.695 7.695 0 0 0-.836-.337 41.653 41.653 0 0 0-.984-.324c-.485-.144-.98-.31-1.483-.498a6.212 6.212 0 0 1-1.375-.715 3.613 3.613 0 0 1-1.025-1.092c-.27-.44-.404-.993-.404-1.658 0-.539.103-1.047.31-1.523.206-.477.53-.9.97-1.268.44-.368 1.002-.656 1.686-.863.683-.206 1.5-.31 2.453-.31zm12.425 0c1.869 0 3.289.553 4.26 1.658.97 1.106 1.456 2.72 1.456 4.84 0 .216-.005.44-.014.674-.01.234-.023.423-.04.566h-8.224c0 .827.341 1.48 1.025 1.955.683.477 1.564.714 2.642.714.665 0 1.298-.072 1.901-.216.602-.143 1.11-.287 1.523-.431l.459 2.831c-.576.199-1.187.364-1.834.5-.647.134-1.375.201-2.184.201-1.078 0-2.045-.14-2.898-.417-.854-.28-1.582-.693-2.184-1.24a5.435 5.435 0 0 1-1.388-2.037c-.324-.808-.486-1.752-.486-2.83 0-1.114.17-2.094.513-2.94.34-.844.79-1.55 1.347-2.116a5.571 5.571 0 0 1 1.915-1.28 5.904 5.904 0 0 1 2.21-.432zm38.856 0c1.87 0 3.29.553 4.26 1.658.971 1.106 1.456 2.72 1.456 4.84 0 .216-.004.44-.013.674-.01.234-.023.423-.04.566h-8.224c0 .827.34 1.48 1.025 1.955.682.477 1.563.714 2.642.714.664 0 1.298-.072 1.901-.216.602-.143 1.11-.287 1.523-.431l.458 2.831c-.575.199-1.186.364-1.833.5-.647.134-1.375.201-2.184.201-1.079 0-2.045-.14-2.899-.417-.853-.28-1.581-.693-2.183-1.24a5.442 5.442 0 0 1-1.39-2.037c-.323-.808-.484-1.752-.484-2.83 0-1.114.17-2.094.512-2.94.341-.844.791-1.55 1.348-2.116a5.571 5.571 0 0 1 1.914-1.28 5.904 5.904 0 0 1 2.211-.432zm24.946-5.554v13.75c0 .864.17 1.448.512 1.753.341.306.773.459 1.294.459.665 0 1.222-.09 1.672-.27.449-.18.745-.296.889-.35l.432 2.669a3.488 3.488 0 0 1-.364.189c-.189.09-.436.184-.742.282-.306.1-.678.185-1.118.257-.441.071-.94.107-1.497.107-1.528 0-2.642-.453-3.343-1.361-.701-.908-1.051-2.233-1.051-3.977V7.278h-3.506v-2.75h6.822zm11.83 5.554c1.87 0 3.29.553 4.26 1.658.971 1.106 1.456 2.72 1.456 4.84 0 .216-.004.44-.013.674-.01.234-.023.423-.04.566h-8.224c0 .827.341 1.48 1.025 1.955.682.477 1.564.714 2.642.714.665 0 1.298-.072 1.9-.216.603-.143 1.11-.287 1.524-.431l.458 2.831c-.575.199-1.186.364-1.833.5-.647.134-1.375.201-2.184.201-1.079 0-2.045-.14-2.899-.417-.853-.28-1.581-.693-2.183-1.24a5.435 5.435 0 0 1-1.389-2.037c-.324-.808-.485-1.752-.485-2.83 0-1.114.17-2.094.512-2.94.341-.844.79-1.55 1.348-2.116a5.564 5.564 0 0 1 1.914-1.28 5.904 5.904 0 0 1 2.211-.432zm13.201 0c.826 0 1.594.064 2.304.19.71.125 1.326.305 1.847.538l-.512 2.805c-.306-.09-.782-.239-1.429-.446-.647-.206-1.375-.31-2.184-.31-.845 0-1.415.104-1.712.31-.296.207-.445.428-.445.66 0 .2.068.374.202.527.135.153.315.292.54.418.224.126.485.247.781.364.297.117.616.23.958.337.485.162.987.341 1.51.539.52.198.993.445 1.415.742.422.296.768.673 1.038 1.132.27.458.404 1.02.404 1.685a3.75 3.75 0 0 1-.297 1.483c-.197.468-.524.872-.983 1.213-.458.342-1.056.611-1.793.809-.738.197-1.644.296-2.723.296-1.097 0-2.032-.125-2.804-.377a23.839 23.839 0 0 1-1.86-.674l.512-2.777c.629.252 1.298.485 2.008.701a7.43 7.43 0 0 0 2.17.323c.81 0 1.43-.058 1.861-.175.431-.117.648-.354.648-.714a.897.897 0 0 0-.203-.594 1.676 1.676 0 0 0-.566-.417 7.706 7.706 0 0 0-.836-.337 40.138 40.138 0 0 0-.984-.324c-.485-.144-.98-.31-1.484-.498a6.204 6.204 0 0 1-1.374-.715 3.603 3.603 0 0 1-1.025-1.092c-.269-.44-.404-.993-.404-1.658 0-.539.103-1.047.31-1.523.207-.477.53-.9.97-1.268.441-.368 1.002-.656 1.685-.863.684-.206 1.501-.31 2.455-.31zm12.383 0c.827 0 1.595.064 2.305.19.71.125 1.325.305 1.847.538l-.512 2.805a71.83 71.83 0 0 1-1.43-.446c-.647-.206-1.374-.31-2.184-.31-.844 0-1.414.104-1.711.31-.296.207-.445.428-.445.66 0 .2.067.374.202.527.135.153.314.292.54.418.224.126.484.247.781.364.296.117.616.23.957.337.486.162.988.341 1.51.539.521.198.993.445 1.416.742.422.296.768.673 1.037 1.132.27.458.405 1.02.405 1.685a3.75 3.75 0 0 1-.297 1.483c-.197.468-.525.872-.983 1.213-.458.342-1.057.611-1.794.809-.737.197-1.644.296-2.723.296-1.096 0-2.03-.125-2.804-.377a23.839 23.839 0 0 1-1.86-.674l.512-2.777c.63.252 1.299.485 2.009.701.71.216 1.433.323 2.17.323.809 0 1.43-.058 1.86-.175.432-.117.648-.354.648-.714a.897.897 0 0 0-.202-.594 1.676 1.676 0 0 0-.567-.417 7.654 7.654 0 0 0-.835-.337 40.192 40.192 0 0 0-.985-.324c-.485-.144-.98-.31-1.483-.498a6.208 6.208 0 0 1-1.374-.715 3.609 3.609 0 0 1-1.025-1.092c-.27-.44-.404-.993-.404-1.658 0-.539.103-1.047.31-1.523.206-.477.53-.9.97-1.268.44-.368 1.002-.656 1.685-.863.683-.206 1.5-.31 2.454-.31zm-86.94.08a16.964 16.964 0 0 1 1.833.122c.378.045.76.1 1.146.162.386.064.732.148 1.038.257l-.593 3.073a11.541 11.541 0 0 0-.768-.162 28.38 28.38 0 0 0-.904-.148 11.41 11.41 0 0 0-1.618-.121c-.467 0-.925.022-1.374.067-.45.045-.908.13-1.375.256v9.41H37.57V11.242a19.93 19.93 0 0 1 2.71-.783c.926-.197 2.009-.296 3.249-.296zm8.856.244c.162.683.354 1.411.58 2.184a84.12 84.12 0 0 0 1.483 4.61c.26.737.508 1.412.741 2.023.234-.611.495-1.286.782-2.023.288-.737.57-1.496.85-2.278.278-.782.547-1.56.808-2.332.26-.773.472-1.5.634-2.184h3.37c-.755 2.553-1.59 4.903-2.508 7.05-.916 2.149-1.779 4.023-2.587 5.622H53.76c-.809-1.6-1.631-3.473-2.467-5.622a89.935 89.935 0 0 1-2.386-7.05h3.478zm30-.243a16.964 16.964 0 0 1 1.834.122c.378.044.76.098 1.146.161.386.064.732.148 1.038.257l-.593 3.073a11.541 11.541 0 0 0-.768-.162 28.38 28.38 0 0 0-.904-.148 11.41 11.41 0 0 0-1.618-.121c-.467 0-.925.022-1.374.067-.45.045-.909.13-1.375.256v9.41h-3.344V11.242a19.93 19.93 0 0 1 2.71-.783c.926-.197 2.009-.296 3.249-.296zm-53.078 2.696c-.432 0-.805.072-1.12.216a2.162 2.162 0 0 0-.781.593 2.89 2.89 0 0 0-.485.863 4.194 4.194 0 0 0-.23.998h5.07c0-.342-.046-.67-.136-.985a2.456 2.456 0 0 0-.431-.85 2.194 2.194 0 0 0-.755-.605c-.306-.153-.683-.23-1.132-.23zm38.856 0c-.431 0-.805.072-1.12.216a2.162 2.162 0 0 0-.78.593 2.89 2.89 0 0 0-.486.863 4.194 4.194 0 0 0-.23.998h5.07c0-.342-.045-.67-.135-.985a2.456 2.456 0 0 0-.432-.85 2.198 2.198 0 0 0-.754-.605c-.306-.153-.684-.23-1.133-.23zm36.776 0c-.431 0-.805.072-1.119.216a2.16 2.16 0 0 0-.782.593c-.206.252-.368.54-.485.863a4.194 4.194 0 0 0-.23.998h5.07c0-.342-.045-.67-.135-.985a2.456 2.456 0 0 0-.432-.85 2.194 2.194 0 0 0-.754-.605c-.306-.153-.684-.23-1.133-.23z"/>
        <path fill="#5267FF" d="M18.226 25.787a.793.793 0 1 1 0 1.586h-5.55a.793.793 0 1 1 0-1.586h5.55zm10.31 0a.793.793 0 1 1 0 1.586h-5.552a.793.793 0 1 1 0-1.586h5.551zm10.308 0a.793.793 0 1 1 0 1.586h-5.55a.793.793 0 1 1 0-1.586h5.55zm10.31 0a.793.793 0 0 1 0 1.586h-5.552a.792.792 0 1 1 0-1.586h5.551z"/>
        <path fill="#EFF4FF" d="M59.462 25.787a.793.793 0 1 1 0 1.586H53.91a.793.793 0 1 1 0-1.586h5.55zm10.309 0a.793.793 0 1 1 0 1.586H64.22a.793.793 0 1 1 0-1.586h5.55zm10.309 0a.792.792 0 1 1 0 1.586h-5.551a.793.793 0 1 1 0-1.586h5.55zm10.308 0a.793.793 0 1 1 0 1.586h-5.55a.793.793 0 1 1 0-1.586h5.55z"/>
        <path fill="#FE7B55" d="M100.697 25.787a.793.793 0 1 1 0 1.586h-5.55a.793.793 0 1 1 0-1.586h5.55zm10.31 0a.793.793 0 1 1 0 1.586h-5.552a.793.793 0 1 1 0-1.586h5.551zm10.308 0a.792.792 0 1 1 0 1.586h-5.55a.792.792 0 1 1 0-1.586h5.55zm10.309 0a.792.792 0 1 1 0 1.586h-5.551a.792.792 0 1 1 0-1.586h5.55z"/>
        <path fill="#5267FF" d="M145.74 26.79L153.379 3h71.25l-7.7 23.79z"/>
        <path fill="#FFF" d="M205.396 7.253c2.353 0 4.307.71 5.773 2.064l-1.754 2.31c-1.199-1.11-2.798-1.621-4.242-1.621-1.42 0-2.175.621-2.175 1.51 0 .957 1.141 1.283 2.741 1.66l.942.22c2.29.551 4.82 1.438 4.82 4.403 0 2.709-1.93 4.752-5.927 4.752-2.842 0-4.885-.955-6.285-2.354l1.733-2.398a6.491 6.491 0 0 0 4.707 1.998c1.732 0 2.575-.82 2.575-1.665 0-1.11-1.288-1.488-2.997-1.887l-.724-.168c-2.274-.542-4.805-1.376-4.805-4.361 0-2.465 2.132-4.463 5.618-4.463zm-41.593.222c4.64 0 7.86 2.953 7.86 7.416 0 4.462-3.22 7.394-7.86 7.394h-5.84V7.475h5.84zm17.516 0l5.705 14.81h-3.441l-.932-2.554h-6.617l-.933 2.554h-3.463l5.728-14.81h3.953zm7.326 0l3.686 5.95 3.642-5.95h3.597l-5.662 8.748v6.062h-3.153v-6.062l-5.706-8.748h3.596zm-24.843 2.775h-2.686v9.26h2.686c2.931 0 4.64-2.11 4.64-4.62 0-2.62-1.598-4.64-4.64-4.64zm15.54-.044L176.877 17h4.908l-2.443-6.794z"/>
        <text fill="#353E46" font-family="Lato-Bold, Lato" font-size="12px" font-weight="bold" letter-spacing="-.63">
            <tspan x="149" y="38.315">P</tspan>
            <tspan x="155.349" y="38.315" letter-spacing="-.001">ARIS</tspan>
        </text>
        <text fill="#231F20" font-family="Lato-Bold, Lato" font-size="12px" font-weight="bold" letter-spacing="-.004">
            <tspan x="186.675" y="38.315">2</tspan>
            <tspan x="194.283" y="38.315" letter-spacing="-.185">0</tspan>
            <tspan x="201.964" y="38.315">20</tspan>
        </text>


    </g>
</svg>
