<svg width="268" height="42" viewBox="0 0 268 42" fill="none" xmlns="http://www.w3.org/2000/svg">
<path fill-rule="evenodd" clip-rule="evenodd" d="M13.0601 0.130035L4.11734 30.625H0L9.00959 0.130035H13.0601ZM175.596 0.130559L166.654 30.6255H162.536L171.545 0.130559H175.596ZM20.0789 9.27106C21.0649 9.27106 21.9818 9.35419 22.8289 9.51848C23.676 9.68277 24.4104 9.91907 25.0326 10.2241L24.4211 13.8955C24.0566 13.7777 23.4887 13.5833 22.7168 13.3123C21.9443 13.0426 21.0757 12.9071 20.1111 12.9071C19.1029 12.9071 18.4223 13.0426 18.0685 13.3123C17.7148 13.5833 17.5376 13.8719 17.5376 14.1769C17.5376 14.4368 17.6181 14.6659 17.7786 14.8655C17.9397 15.0658 18.1538 15.2484 18.4223 15.4127C18.6901 15.5783 19.0009 15.7361 19.3553 15.8892C19.709 16.0424 20.0896 16.1897 20.497 16.3304C21.0757 16.5425 21.6758 16.7775 22.298 17.036C22.9202 17.2952 23.4833 17.6186 23.9868 18.0074C24.4909 18.3955 24.9043 18.8891 25.2252 19.4893C25.5474 20.0895 25.7078 20.8252 25.7078 21.6951C25.7078 22.3785 25.5903 23.0252 25.3541 23.6365C25.1179 24.2492 24.7271 24.7781 24.1801 25.2251C23.6337 25.6722 22.9202 26.025 22.0409 26.2835C21.161 26.5421 20.0789 26.6717 18.7921 26.6717C17.4833 26.6717 16.3684 26.5074 15.4467 26.1782C14.5244 25.8489 13.7847 25.5544 13.227 25.2952L13.8384 21.6598C14.5889 21.9903 15.3871 22.2953 16.2347 22.5781C17.0818 22.8602 17.9444 23.001 18.8243 23.001C19.7895 23.001 20.5293 22.925 21.0441 22.7719C21.5583 22.6187 21.816 22.3078 21.816 21.8365C21.816 21.5308 21.7355 21.2716 21.5744 21.0596C21.4133 20.8488 21.1884 20.6662 20.8991 20.513C20.6098 20.3598 20.2769 20.2132 19.9023 20.0718C19.5265 19.9304 19.1345 19.7891 18.7277 19.6483C18.149 19.4598 17.5591 19.2419 16.9583 18.9957C16.3576 18.7483 15.8112 18.4368 15.3179 18.0597C14.8245 17.6834 14.4177 17.2069 14.0955 16.6308C13.774 16.0548 13.6135 15.3309 13.6135 14.4597C13.6135 13.7547 13.7364 13.0891 13.9828 12.4659C14.2292 11.8421 14.6151 11.2884 15.1413 10.8066C15.6662 10.3249 16.3362 9.94787 17.1516 9.67688C17.9665 9.40721 18.9419 9.27106 20.0789 9.27106ZM34.902 9.27139C37.1319 9.27139 38.8261 9.99532 39.9845 11.4419C41.1424 12.8898 41.7217 15.0013 41.7217 17.778C41.7217 18.0601 41.7163 18.3546 41.7056 18.6603C41.6942 18.966 41.6781 19.2134 41.6573 19.4012H31.8459C31.8459 20.4839 32.2528 21.3374 33.0688 21.9599C33.8831 22.5843 34.9342 22.8952 36.221 22.8952C37.0144 22.8952 37.7696 22.801 38.489 22.6125C39.2072 22.4253 39.8127 22.2368 40.3061 22.0476L40.8531 25.7543C40.1665 26.0142 39.4375 26.2308 38.6656 26.4076C37.8937 26.5836 37.0251 26.672 36.0599 26.672C34.7731 26.672 33.62 26.4894 32.6017 26.1255C31.5834 25.7602 30.7149 25.2189 29.9966 24.5015C29.2778 23.7835 28.726 22.8952 28.34 21.8362C27.9535 20.7778 27.7608 19.542 27.7608 18.1308C27.7608 16.6724 27.9642 15.3895 28.3722 14.2833C28.7791 13.1778 29.3154 12.2542 29.9799 11.5126C30.6451 10.7716 31.4063 10.2133 32.2641 9.83627C33.1213 9.4599 34.0012 9.27139 34.902 9.27139ZM81.2616 9.27139C83.4915 9.27139 85.1857 9.99532 86.3442 11.4419C87.5021 12.8898 88.0813 15.0013 88.0813 17.778C88.0813 18.0601 88.0759 18.3546 88.0652 18.6603C88.0539 18.966 88.0378 19.2134 88.0169 19.4012H78.2055C78.2055 20.4839 78.6124 21.3374 79.4284 21.9599C80.2427 22.5843 81.2938 22.8952 82.5806 22.8952C83.3734 22.8952 84.1292 22.801 84.8486 22.6125C85.5669 22.4253 86.1724 22.2368 86.6657 22.0476L87.2127 25.7543C86.5261 26.0142 85.7971 26.2308 85.0252 26.4076C84.2533 26.5836 83.3847 26.672 82.4195 26.672C81.1328 26.672 79.9797 26.4894 78.9613 26.1255C77.9431 25.7602 77.0745 25.2189 76.3562 24.5015C75.6374 23.7835 75.0856 22.8952 74.6991 21.8362C74.3131 20.7778 74.1204 19.542 74.1204 18.1308C74.1204 16.6724 74.3238 15.3895 74.7319 14.2833C75.1387 13.1778 75.675 12.2542 76.3395 11.5126C77.0047 10.7716 77.7659 10.2133 78.6237 9.83627C79.4809 9.4599 80.3608 9.27139 81.2616 9.27139ZM111.023 2.00029V20.0011C111.023 21.1309 111.227 21.8961 111.635 22.2953C112.042 22.6959 112.556 22.8956 113.179 22.8956C113.971 22.8956 114.636 22.7778 115.173 22.5428C115.709 22.3078 116.062 22.1546 116.234 22.0839L116.749 25.5779C116.685 25.6257 116.54 25.7075 116.315 25.8253C116.09 25.9432 115.794 26.0669 115.43 26.1952C115.065 26.3254 114.62 26.4367 114.095 26.531C113.569 26.6246 112.974 26.6717 112.31 26.6717C110.487 26.6717 109.157 26.078 108.322 24.8893C107.485 23.7013 107.067 21.9661 107.067 19.6837V5.60033H102.885V2.00029H111.023ZM125.138 9.27139C127.368 9.27139 129.062 9.99532 130.221 11.4419C131.379 12.8898 131.958 15.0013 131.958 17.778C131.958 18.0601 131.952 18.3546 131.942 18.6603C131.93 18.966 131.914 19.2134 131.893 19.4012H122.082C122.082 20.4839 122.489 21.3374 123.305 21.9599C124.119 22.5843 125.171 22.8952 126.457 22.8952C127.25 22.8952 128.006 22.801 128.725 22.6125C129.443 22.4253 130.049 22.2368 130.542 22.0476L131.089 25.7543C130.403 26.0142 129.674 26.2308 128.902 26.4076C128.13 26.5836 127.261 26.672 126.297 26.672C125.009 26.672 123.856 26.4894 122.838 26.1255C121.82 25.7602 120.951 25.2189 120.233 24.5015C119.514 23.7835 118.962 22.8952 118.576 21.8362C118.19 20.7778 117.997 19.542 117.997 18.1308C117.997 16.6724 118.2 15.3895 118.608 14.2833C119.015 13.1778 119.552 12.2542 120.217 11.5126C120.881 10.7716 121.642 10.2133 122.5 9.83627C123.357 9.4599 124.237 9.27139 125.138 9.27139ZM140.888 9.27106C141.873 9.27106 142.79 9.35419 143.637 9.51848C144.484 9.68277 145.219 9.91907 145.84 10.2241L145.23 13.8955C144.865 13.7777 144.297 13.5833 143.525 13.3123C142.753 13.0426 141.884 12.9071 140.919 12.9071C139.911 12.9071 139.231 13.0426 138.877 13.3123C138.523 13.5833 138.346 13.8719 138.346 14.1769C138.346 14.4368 138.427 14.6659 138.587 14.8655C138.748 15.0658 138.962 15.2484 139.231 15.4127C139.499 15.5783 139.809 15.7361 140.163 15.8892C140.517 16.0424 140.897 16.1897 141.305 16.3304C141.884 16.5425 142.484 16.7775 143.106 17.036C143.729 17.2952 144.292 17.6186 144.796 18.0074C145.299 18.3955 145.712 18.8891 146.034 19.4893C146.356 20.0895 146.516 20.8252 146.516 21.6951C146.516 22.3785 146.399 23.0252 146.162 23.6365C145.927 24.2492 145.536 24.7781 144.989 25.2251C144.442 25.6722 143.729 26.025 142.849 26.2835C141.969 26.5421 140.888 26.6717 139.601 26.6717C138.292 26.6717 137.177 26.5074 136.255 26.1782C135.333 25.8489 134.593 25.5544 134.036 25.2952L134.647 21.6598C135.397 21.9903 136.196 22.2953 137.043 22.5781C137.89 22.8602 138.753 23.001 139.633 23.001C140.597 23.001 141.337 22.925 141.852 22.7719C142.367 22.6187 142.625 22.3078 142.625 21.8365C142.625 21.5308 142.544 21.2716 142.383 21.0596C142.222 20.8488 141.997 20.6662 141.708 20.513C141.418 20.3598 141.085 20.2132 140.71 20.0718C140.335 19.9304 139.944 19.7891 139.536 19.6483C138.957 19.4598 138.367 19.2419 137.766 18.9957C137.166 18.7483 136.62 18.4368 136.127 18.0597C135.633 17.6834 135.226 17.2069 134.904 16.6308C134.582 16.0548 134.422 15.3309 134.422 14.4597C134.422 13.7547 134.545 13.0891 134.791 12.4659C135.038 11.8421 135.424 11.2884 135.949 10.8066C136.475 10.3249 137.145 9.94787 137.959 9.67688C138.775 9.40721 139.75 9.27106 140.888 9.27106ZM155.662 9.27106C156.648 9.27106 157.565 9.35419 158.412 9.51848C159.259 9.68277 159.993 9.91907 160.615 10.2241L160.004 13.8955C159.64 13.7777 159.071 13.5833 158.3 13.3123C157.527 13.0426 156.659 12.9071 155.693 12.9071C154.686 12.9071 154.006 13.0426 153.651 13.3123C153.298 13.5833 153.12 13.8719 153.12 14.1769C153.12 14.4368 153.201 14.6659 153.361 14.8655C153.522 15.0658 153.737 15.2484 154.006 15.4127C154.273 15.5783 154.584 15.7361 154.938 15.8892C155.291 16.0424 155.672 16.1897 156.08 16.3304C156.659 16.5425 157.259 16.7775 157.881 17.036C158.503 17.2952 159.066 17.6186 159.57 18.0074C160.074 18.3955 160.486 18.8891 160.808 19.4893C161.13 20.0895 161.291 20.8252 161.291 21.6951C161.291 22.3785 161.174 23.0252 160.937 23.6365C160.701 24.2492 160.31 24.7781 159.763 25.2251C159.217 25.6722 158.503 26.025 157.624 26.2835C156.744 26.5421 155.662 26.6717 154.375 26.6717C153.067 26.6717 151.952 26.5074 151.029 26.1782C150.107 25.8489 149.368 25.5544 148.81 25.2952L149.421 21.6598C150.172 21.9903 150.97 22.2953 151.818 22.5781C152.665 22.8602 153.528 23.001 154.408 23.001C155.372 23.001 156.112 22.925 156.627 22.7719C157.141 22.6187 157.399 22.3078 157.399 21.8365C157.399 21.5308 157.319 21.2716 157.158 21.0596C156.996 20.8488 156.772 20.6662 156.482 20.513C156.193 20.3598 155.86 20.2132 155.485 20.0718C155.11 19.9304 154.718 19.7891 154.31 19.6483C153.732 19.4598 153.142 19.2419 152.541 18.9957C151.94 18.7483 151.395 18.4368 150.901 18.0597C150.408 17.6834 150 17.2069 149.678 16.6308C149.357 16.0548 149.197 15.3309 149.197 14.4597C149.197 13.7547 149.32 13.0891 149.566 12.4659C149.813 11.8421 150.198 11.2884 150.723 10.8066C151.25 10.3249 151.919 9.94787 152.734 9.67688C153.549 9.40721 154.525 9.27106 155.662 9.27106ZM51.9346 9.37683C52.1488 9.37683 52.4542 9.38927 52.8509 9.41218C53.2482 9.4364 53.6717 9.47698 54.1221 9.53589C54.5725 9.5948 55.0277 9.66549 55.4888 9.74797C55.9499 9.83109 56.3628 9.94171 56.7278 10.0838L56.0197 14.1073C55.7626 14.0359 55.4572 13.9652 55.1035 13.8952C54.7497 13.8245 54.39 13.7604 54.0255 13.7008C53.6604 13.6432 53.3067 13.6013 52.9637 13.5771C52.6206 13.5548 52.3307 13.5424 52.0951 13.5424C51.5373 13.5424 50.9909 13.5719 50.4552 13.6308C49.9183 13.6897 49.3719 13.801 48.8147 13.9652V26.2839H44.8256V10.7894C45.8761 10.3652 46.9535 10.0248 48.0583 9.76498C49.1631 9.50644 50.4552 9.37683 51.9346 9.37683ZM98.2943 9.37683C98.5085 9.37683 98.8139 9.38927 99.2106 9.41218C99.6079 9.4364 100.031 9.47698 100.482 9.53589C100.932 9.5948 101.387 9.66549 101.849 9.74797C102.31 9.83109 102.722 9.94171 103.088 10.0838L102.379 14.1073C102.122 14.0359 101.817 13.9652 101.463 13.8952C101.109 13.8245 100.75 13.7604 100.385 13.7008C100.02 13.6432 99.6663 13.6013 99.3233 13.5771C98.9803 13.5548 98.6904 13.5424 98.4548 13.5424C97.897 13.5424 97.3506 13.5719 96.8149 13.6308C96.278 13.6897 95.731 13.801 95.1744 13.9652V26.2839H91.1853V10.7894C92.2358 10.3652 93.3132 10.0248 94.418 9.76498C95.5228 9.50644 96.8149 9.37683 98.2943 9.37683ZM62.5016 9.69534C62.6943 10.5895 62.924 11.5425 63.193 12.5538C63.4608 13.5657 63.7448 14.5835 64.0455 15.6066C64.3455 16.6303 64.6515 17.6246 64.9623 18.5894C65.2731 19.5542 65.5678 20.4372 65.8464 21.2371C66.1256 20.4372 66.4364 19.5542 66.7794 18.5894C67.1224 17.6246 67.4601 16.6303 67.7929 15.6066C68.1252 14.5835 68.4467 13.5657 68.7581 12.5538C69.0683 11.5425 69.3207 10.5895 69.514 9.69534H73.5347C72.6339 13.0368 71.6371 16.1132 70.543 18.9245C69.4495 21.7371 68.4205 24.1904 67.4553 26.2837H64.1421C63.1769 24.1904 62.1956 21.7371 61.1982 18.9245C60.2019 16.1132 59.2528 13.0368 58.3515 9.69534H62.5016ZM34.9664 12.9068C34.4516 12.9068 34.006 13.001 33.6308 13.1895C33.2561 13.378 32.9447 13.6366 32.6984 13.9652C32.4514 14.2957 32.2587 14.6714 32.1197 15.0956C31.9795 15.5184 31.8889 15.9544 31.8459 16.4014H37.8937C37.8937 15.9544 37.84 15.5243 37.7326 15.1126C37.6252 14.7009 37.454 14.3311 37.2178 14.0005C36.9821 13.6726 36.6821 13.4068 36.3176 13.2072C35.9525 13.0069 35.5021 12.9068 34.9664 12.9068ZM81.326 12.9068C80.8112 12.9068 80.3656 13.001 79.9904 13.1895C79.6158 13.378 79.3044 13.6366 79.058 13.9652C78.811 14.2957 78.6183 14.6714 78.4793 15.0956C78.3392 15.5184 78.2485 15.9544 78.2055 16.4014H84.2533C84.2533 15.9544 84.1996 15.5243 84.0922 15.1126C83.9848 14.7009 83.8136 14.3311 83.5774 14.0005C83.3412 13.6726 83.0417 13.4068 82.6772 13.2072C82.3121 13.0069 81.8617 12.9068 81.326 12.9068ZM125.203 12.9068C124.688 12.9068 124.242 13.001 123.868 13.1895C123.492 13.378 123.181 13.6366 122.935 13.9652C122.688 14.2957 122.495 14.6714 122.356 15.0956C122.216 15.5184 122.125 15.9544 122.082 16.4014H128.13C128.13 15.9544 128.076 15.5243 127.969 15.1126C127.861 14.7009 127.69 14.3311 127.454 14.0005C127.218 13.6726 126.918 13.4068 126.554 13.2072C126.189 13.0069 125.738 12.9068 125.203 12.9068Z" fill="#5267FF"/>
<path fill-rule="evenodd" clip-rule="evenodd" d="M21.7458 29.8313C22.2683 29.8313 22.6919 30.2954 22.6919 30.8694C22.6919 31.4435 22.2683 31.9076 21.7458 31.9076H15.1229C14.6004 31.9076 14.1768 31.4435 14.1768 30.8694C14.1768 30.2954 14.6004 29.8313 15.1229 29.8313H21.7458ZM34.0453 29.8313C34.5679 29.8313 34.9914 30.2954 34.9914 30.8694C34.9914 31.4435 34.5679 31.9076 34.0453 31.9076H27.4225C26.8999 31.9076 26.4763 31.4435 26.4763 30.8694C26.4763 30.2954 26.8999 29.8313 27.4225 29.8313H34.0453ZM46.3448 29.8313C46.8668 29.8313 47.2909 30.2954 47.2909 30.8694C47.2909 31.4435 46.8668 31.9076 46.3448 31.9076H39.722C39.1994 31.9076 38.7759 31.4435 38.7759 30.8694C38.7759 30.2954 39.1994 29.8313 39.722 29.8313H46.3448ZM58.6443 29.8313C59.1663 29.8313 59.5899 30.2954 59.5899 30.8694C59.5899 31.4435 59.1663 31.9076 58.6443 31.9076H52.0209C51.4983 31.9076 51.0754 31.4435 51.0754 30.8694C51.0754 30.2954 51.4983 29.8313 52.0209 29.8313H58.6443Z" fill="#6275FF"/>
<path fill-rule="evenodd" clip-rule="evenodd" d="M70.9433 29.8313C71.4659 29.8313 71.8895 30.2954 71.8895 30.8694C71.8895 31.4435 71.4659 31.9076 70.9433 31.9076H64.3205C63.798 31.9076 63.3744 31.4435 63.3744 30.8694C63.3744 30.2954 63.798 29.8313 64.3205 29.8313H70.9433ZM83.2429 29.8313C83.7654 29.8313 84.189 30.2954 84.189 30.8694C84.189 31.4435 83.7654 31.9076 83.2429 31.9076H76.6201C76.0975 31.9076 75.6739 31.4435 75.6739 30.8694C75.6739 30.2954 76.0975 29.8313 76.6201 29.8313H83.2429ZM95.5424 29.8313C96.065 29.8313 96.4879 30.2954 96.4879 30.8694C96.4879 31.4435 96.065 31.9076 95.5424 31.9076H88.9196C88.397 31.9076 87.9734 31.4435 87.9734 30.8694C87.9734 30.2954 88.397 29.8313 88.9196 29.8313H95.5424ZM107.841 29.8313C108.364 29.8313 108.787 30.2954 108.787 30.8694C108.787 31.4435 108.364 31.9076 107.841 31.9076H101.219C100.697 31.9076 100.273 31.4435 100.273 30.8694C100.273 30.2954 100.697 29.8313 101.219 29.8313H107.841Z" fill="#EFF4FF"/>
<path fill-rule="evenodd" clip-rule="evenodd" d="M120.105 29.273C120.627 29.273 121.051 29.7371 121.051 30.3111C121.051 30.8852 120.627 31.3492 120.105 31.3492H113.482C112.959 31.3492 112.536 30.8852 112.536 30.3111C112.536 29.7371 112.959 29.273 113.482 29.273H120.105ZM132.404 29.273C132.927 29.273 133.35 29.7371 133.35 30.3111C133.35 30.8852 132.927 31.3492 132.404 31.3492H125.781C125.259 31.3492 124.835 30.8852 124.835 30.3111C124.835 29.7371 125.259 29.273 125.781 29.273H132.404ZM144.704 29.273C145.227 29.273 145.65 29.7371 145.65 30.3111C145.65 30.8852 145.227 31.3492 144.704 31.3492H138.081C137.558 31.3492 137.135 30.8852 137.135 30.3111C137.135 29.7371 137.558 29.273 138.081 29.273H144.704ZM157.003 29.273C157.526 29.273 157.949 29.7371 157.949 30.3111C157.949 30.8852 157.526 31.3492 157.003 31.3492H150.38C149.857 31.3492 149.434 30.8852 149.434 30.3111C149.434 29.7371 149.857 29.273 150.38 29.273H157.003Z" fill="#FE7B55"/>
<path d="M198.555 39.1348V41.9169H197.618V34.4789H199.67C200.11 34.4789 200.492 34.5343 200.816 34.645C201.142 34.7523 201.412 34.9062 201.626 35.107C201.839 35.3077 201.998 35.5499 202.101 35.8336C202.208 36.1174 202.261 36.434 202.261 36.7835C202.261 37.1295 202.205 37.4462 202.092 37.7334C201.978 38.0206 201.812 38.268 201.592 38.4756C201.375 38.6832 201.105 38.8459 200.782 38.9635C200.458 39.0777 200.088 39.1348 199.67 39.1348H198.555ZM198.555 38.3355H199.67C199.939 38.3355 200.175 38.2974 200.379 38.2213C200.586 38.1451 200.759 38.0396 200.898 37.9047C201.037 37.7662 201.142 37.6019 201.213 37.4116C201.285 37.2212 201.32 37.0119 201.32 36.7835C201.32 36.3094 201.183 35.9392 200.908 35.6727C200.636 35.4063 200.224 35.273 199.67 35.273H198.555V38.3355Z" fill="#4E67FF"/>
<path d="M211.425 41.9169H210.416C210.302 41.9169 210.209 41.8875 210.134 41.8287C210.063 41.7664 210.011 41.6903 209.979 41.6003L209.455 40.0691H206.549L206.025 41.6003C205.999 41.6799 205.947 41.7526 205.869 41.8183C205.795 41.8841 205.703 41.9169 205.593 41.9169H204.579L207.335 34.4114H208.669L211.425 41.9169ZM206.883 39.0829H209.12L208.266 36.5863C208.227 36.4755 208.184 36.3458 208.135 36.197C208.09 36.0447 208.045 35.8803 207.999 35.7039C207.954 35.8803 207.909 36.0447 207.864 36.197C207.822 36.3492 207.779 36.4824 207.737 36.5966L206.883 39.0829Z" fill="#4E67FF"/>
<path d="M215.437 38.9843V41.9169H214.132V34.4114H216.271C216.75 34.4114 217.159 34.4651 217.499 34.5723C217.842 34.6761 218.122 34.8232 218.338 35.0135C218.558 35.2038 218.718 35.4322 218.819 35.6987C218.922 35.9617 218.974 36.2523 218.974 36.5707C218.974 36.8233 218.938 37.0621 218.867 37.287C218.799 37.5119 218.699 37.7161 218.566 37.8995C218.437 38.0829 218.275 38.2438 218.081 38.3822C217.89 38.5206 217.672 38.6313 217.426 38.7144C217.591 38.8147 217.733 38.9583 217.853 39.1452L219.609 41.9169H218.435C218.322 41.9169 218.225 41.8927 218.144 41.8443C218.067 41.7958 218 41.7266 217.945 41.6367L216.47 39.2334C216.415 39.1435 216.354 39.0794 216.286 39.0414C216.221 39.0033 216.124 38.9843 215.995 38.9843H215.437ZM215.437 37.9825H216.252C216.498 37.9825 216.711 37.9496 216.892 37.8839C217.077 37.8181 217.227 37.7282 217.344 37.614C217.463 37.4963 217.552 37.3579 217.61 37.1987C217.669 37.0396 217.698 36.8648 217.698 36.6745C217.698 36.2939 217.58 36.0015 217.344 35.7973C217.111 35.5931 216.753 35.4911 216.271 35.4911H215.437V37.9825Z" fill="#4E67FF"/>
<path d="M223.857 41.9169H222.547V34.4114H223.857V41.9169Z" fill="#4E67FF"/>
<path d="M231.14 35.7765C231.104 35.8527 231.062 35.9063 231.013 35.9374C230.968 35.9686 230.913 35.9842 230.848 35.9842C230.784 35.9842 230.711 35.9582 230.63 35.9063C230.549 35.8509 230.454 35.7904 230.344 35.7246C230.234 35.6589 230.105 35.6001 229.956 35.5481C229.81 35.4928 229.637 35.4651 229.437 35.4651C229.255 35.4651 229.097 35.4893 228.961 35.5378C228.828 35.5827 228.715 35.6468 228.621 35.7298C228.531 35.8129 228.463 35.9132 228.418 36.0309C228.372 36.1451 228.35 36.2714 228.35 36.4098C228.35 36.5863 228.395 36.7333 228.486 36.851C228.579 36.9686 228.702 37.069 228.854 37.152C229.006 37.2351 229.179 37.3095 229.374 37.3752C229.568 37.441 229.765 37.5119 229.965 37.588C230.169 37.6607 230.368 37.7472 230.562 37.8476C230.756 37.9444 230.929 38.069 231.081 38.2213C231.233 38.3701 231.355 38.5535 231.445 38.7715C231.539 38.9895 231.586 39.2542 231.586 39.5656C231.586 39.9047 231.531 40.2231 231.421 40.5207C231.314 40.8148 231.156 41.0726 230.946 41.2941C230.738 41.5121 230.485 41.6851 230.184 41.8131C229.883 41.9377 229.538 42 229.15 42C228.927 42 228.707 41.9758 228.49 41.9273C228.274 41.8823 228.065 41.8166 227.865 41.7301C227.667 41.6436 227.481 41.5398 227.307 41.4186C227.135 41.2975 226.982 41.1626 226.846 41.0138L227.224 40.3442C227.26 40.2958 227.302 40.256 227.35 40.2248C227.402 40.1902 227.459 40.1729 227.52 40.1729C227.601 40.1729 227.688 40.2093 227.782 40.2819C227.876 40.3511 227.986 40.429 228.112 40.5155C228.241 40.602 228.392 40.6816 228.563 40.7543C228.738 40.8235 228.947 40.8581 229.189 40.8581C229.561 40.8581 229.849 40.7646 230.053 40.5778C230.257 40.3875 230.358 40.1158 230.358 39.7629C230.358 39.5656 230.312 39.4047 230.218 39.2801C230.127 39.1556 230.006 39.0518 229.854 38.9687C229.702 38.8822 229.529 38.8095 229.335 38.7507C229.141 38.6919 228.943 38.6279 228.743 38.5587C228.542 38.4895 228.345 38.4064 228.151 38.3095C227.957 38.2126 227.784 38.0863 227.632 37.9306C227.48 37.7749 227.357 37.5811 227.263 37.3493C227.172 37.114 227.127 36.825 227.127 36.4824C227.127 36.2091 227.177 35.9426 227.278 35.6831C227.381 35.4236 227.53 35.1935 227.724 34.9928C227.921 34.7921 228.162 34.6312 228.447 34.51C228.731 34.3889 229.057 34.3284 229.422 34.3284C229.836 34.3284 230.218 34.3976 230.567 34.536C230.916 34.6744 231.214 34.8682 231.46 35.1173L231.14 35.7765Z" fill="#4E67FF"/>
<path fill-rule="evenodd" clip-rule="evenodd" d="M182.994 0L173.881 31.143H258.814L268 0H182.994ZM251.942 8.27041C250.194 6.49723 247.862 5.56776 245.055 5.56776C240.896 5.56776 238.352 8.18335 238.352 11.4103C238.352 15.3183 241.372 16.4096 244.084 17.1198L244.949 17.3399C246.988 17.8622 248.525 18.3571 248.525 19.8102C248.525 20.9151 247.518 21.9898 245.452 21.9898C243.014 21.9898 241.08 20.7986 239.836 19.3742L237.769 22.5135C239.439 24.3449 241.876 25.5945 245.267 25.5945C250.036 25.5945 252.34 22.92 252.34 19.3742C252.34 15.4922 249.319 14.3315 246.588 13.6089L245.465 13.3222C243.556 12.8285 242.194 12.4018 242.194 11.1485C242.194 9.98534 243.094 9.17173 244.789 9.17173C246.511 9.17173 248.42 9.84068 249.85 11.2931L251.942 8.27041ZM204.808 15.5666C204.808 9.72411 200.966 5.85832 195.43 5.85832H188.463V25.2462H195.43C200.966 25.2462 204.808 21.4085 204.808 15.5666ZM223.136 25.2458L216.329 5.85864H211.613L204.778 25.2458H208.91L210.023 21.9024H217.918L219.03 25.2458H223.136ZM229.467 13.6487L225.07 5.85819H220.779L227.587 17.3102V25.246H231.349V17.3102L238.104 5.85819H233.812L229.467 13.6487ZM192.225 9.49174H195.43C199.059 9.49174 200.966 12.1368 200.966 15.5666C200.966 18.8512 198.927 21.6127 195.43 21.6127H192.225V9.49174ZM211.03 18.3279L213.971 9.43316L216.885 18.3279H211.03Z" fill="#5267FF"/>
</svg>
