<svg xmlns="http://www.w3.org/2000/svg" width="399" height="168" viewBox="0 0 399 168">
    <g fill="none" fill-rule="evenodd">
        <path fill="#EFF4FF" fill-opacity=".1" d="M57 48c15.59-12.992 25.93-22.233 47.262-22.525 3.297-.045 6.856.123 10.738.525 29 3 66 65 105 62s57-24 69-37 19-20 41-25c14.667-3.333 37.667 1 69 13v128H0l1-91c25.333-8.667 44-18 56-28z"/>
        <path fill="#6295FF" d="M55.2 47c18.6 0 34.2 15.6 33.83 30.705-.038 1.534.353 30.661.37 33.36v.135c0 14.03-9.772 25.939-23.333 30.161.287.913.431 1.852.41 2.786-.013.548.123 11.165.123 11.723 0 6.147-5.104 11.13-11.4 11.13s-11.4-4.983-11.4-11.13c0-.346.05-9.186.056-10.914v-.281a10.17 10.17 0 0 1 .527-3.3C30.797 137.17 21 125.249 21 111.2c0-.998.155-26.769.169-31.329v-1.155C21.312 62.29 36.786 47 55.2 47z"/>
        <path fill="#FE7B55" d="M79.8 108h13c-8.318-13.626-12.651-20.626-13-21v21z"/>
        <path fill="#FFF" fill-rule="nonzero" d="M72 113c0 9.92 4.656 15 13.8 15v-1.2c-8.456 0-12.6-4.52-12.6-13.8H72zM42.6 107.6a9 9 0 0 1-9-9h-1.2c0 5.633 4.567 10.2 10.2 10.2v-1.2z"/>
        <path fill="#6295FF" d="M347.8 26c-18.6 0-34.2 15.6-33.83 30.705.038 1.534-.353 30.661-.37 33.36v.135c0 14.03 9.772 25.939 23.333 30.161a8.618 8.618 0 0 0-.41 2.786c.013.548-.123 14.165-.123 14.723 0 6.147 5.104 11.13 11.4 11.13s11.4-4.983 11.4-11.13c0-.343-.05-11.566-.056-13.813v-.382a10.17 10.17 0 0 0-.527-3.3C372.203 116.17 382 104.249 382 90.2c0-.998-.155-26.769-.169-31.329v-1.155C381.688 41.29 366.214 26 347.8 26z"/>
        <path fill="#FE7B55" d="M317 86h-13l13-10v10z"/>
        <path fill="#FFF" fill-rule="nonzero" d="M330.4 92c0 9.92-4.656 15-13.8 15v-1.2c8.456 0 12.6-4.52 12.6-13.8h1.2zM359.8 91a9 9 0 0 0 9-9h1.2c0 5.633-4.567 10.2-10.2 10.2V91z"/>
        <path fill="#FFF" fill-rule="nonzero" d="M372.973 112.634c-.587.107-.838-.422-.99-1.276l-.045-.29a24.96 24.96 0 0 1-.158-1.698l-.154-2.546-.15-2.324c-.06-.832-.126-1.617-.201-2.403-.292-3.048-.713-5.827-1.326-8.453-2.638-11.305-8.362-17.88-18.564-18.041l-.824-.007c-7.896-.156-15.574-4.503-21.797-11.561-5.48-6.217-9.128-13.897-9.21-19.154C319.392 34.476 334.042 25.4 351 25.4c6.219 0 14.534 1.854 21.568 5.828 10.146 5.73 16.67 15.116 18.03 28.715l.49 5.219c2.056 22.441 2.581 35.957 1.563 40.685l-.069.299c-1.24 4.96-7.617 7.057-18.983 6.487l-.512-.027-.114.028zm.248-1.222c11.119.618 17.133-1.303 18.197-5.558 1.096-4.383.526-18.683-1.725-42.737l-.29-3.057c-1.32-13.195-7.608-22.243-17.425-27.788C365.14 28.41 357.025 26.6 351 26.6c-16.375 0-30.395 8.687-30.246 18.262.076 4.934 3.603 12.36 8.91 18.379 6.016 6.823 13.395 11.002 20.91 11.155l.816.007c10.863.163 16.977 7.18 19.728 18.968.626 2.684 1.054 5.515 1.351 8.612.095.994.175 1.986.248 3.067l.044.66.198 3.31.067.923c.044.534.088.915.14 1.206l.018.099.037.164z"/>
        <path fill="#6295FF" d="M161.5 12C146 12 133 25 133.308 37.588 133.34 38.893 133 64.17 133 65.5c0 11.692 8.143 21.615 19.444 25.134a7.2 7.2 0 0 0-.341 2.322c.01.456-.103 9.304-.103 9.769 0 5.122 4.253 9.275 9.5 9.275s9.5-4.153 9.5-9.275c0-.3-.046-8.246-.047-9.237v-.092a8.474 8.474 0 0 0-.439-2.749C181.836 87.14 190 77.207 190 65.5c0-.845-.133-22.993-.141-26.274v-.381C190 25 177 12 161.5 12z"/>
        <path fill="#FE7B55" d="M141 62h-12l12-23v23z"/>
        <path fill="#FFF" fill-rule="nonzero" d="M147 67c0 8.32-3.923 12.6-11.6 12.6v-1.2c6.99 0 10.4-3.72 10.4-11.4h1.2zM174.5 66.4c2.708 0 4.9-2.164 4.9-4.829V53.43c0-2.665-2.192-4.829-4.9-4.829s-4.9 2.164-4.9 4.829h-1.2c0-3.332 2.733-6.029 6.1-6.029 3.367 0 6.1 2.697 6.1 6.029v8.142c0 3.332-2.733 6.029-6.1 6.029v-1.2z"/>
        <path fill="#FFF" fill-rule="nonzero" d="M189.5-.6c7.235 0 13.1 5.865 13.1 13.1 0 6.54-4.81 12.014-11.157 12.957 1.404 2.863 2.46 6.075 3.146 9.641 2.684 13.948 1.354 24.35-4.042 31.179a1.315 1.315 0 0 1-.196.43c-.384.516-.945.31-1.186-.134a2.854 2.854 0 0 1-.21-.568l-.044-.16-.74-3.15c-.664-2.735-1.387-5.029-2.397-7.302-1.295-2.911-2.903-5.332-4.892-7.158-4.038-3.71-9.86-5.167-17.925-5.228l-.903-.005c-11.701-.185-21.227-9.275-21.608-20.671l-.005-.189-.015-.07a1.153 1.153 0 0 1-.015-.094l-.007-.1-.003-.16.006-.167.012-.138.003-.023-.004-.142.032.008.029-.043.187-.25.206-.042c2.91-6.832 11.288-12.52 21.349-12.52 4.868 0 9.792.915 14.242 2.815l.034-.31C177.283 4.41 182.818-.6 189.5-.6zm0 1.2c-6.435 0-11.7 5.116-11.893 11.531l-.028.905-.823-.378c-4.488-2.062-9.541-3.058-14.535-3.058-9.915 0-18.082 5.786-20.524 12.492l-.053.125.016.42c.536 10.58 9.454 18.985 20.399 19.165l.904.005c8.338.063 14.422 1.585 18.731 5.544 2.123 1.95 3.82 4.504 5.176 7.555 1.045 2.348 1.787 4.704 2.467 7.5l.156.654.465 2.013c4.848-6.52 6.016-16.427 3.453-29.748-.727-3.78-1.88-7.138-3.424-10.087l-.421-.804.904-.073c6.153-.496 10.93-5.65 10.93-11.861 0-6.572-5.328-11.9-11.9-11.9z"/>
        <path fill="#6295FF" d="M229 63c15.772 0 29 13.217 28.686 26.015-.032 1.327.314 23.562.314 24.914 0 11.71-8.04 21.675-19.272 25.39.124.633.182 1.276.17 1.916-.011.522.102 10.633.102 11.165 0 5.854-4.253 10.6-9.5 10.6s-9.5-4.746-9.5-10.6c0-.336.044-9.078.047-10.482v-.18c-.006-.715.061-1.425.193-2.118-11.734-3.45-20.24-13.648-20.24-25.691 0-.912.153-22.738.144-23.635C200 76.217 213.228 63 229 63z"/>
        <path fill="#FE7B55" d="M249 107h12c-4.709-11.152-8.709-18.818-12-23v23z"/>
        <path fill="#FFF" fill-rule="nonzero" d="M243.4 112c0 8.988 4.257 13.6 12.6 13.6v-1.2c-7.657 0-11.4-4.054-11.4-12.4h-1.2zM219.167 112.4c-4.197 0-7.567-2.913-7.567-6.459V99.06c0-3.816 2.454-6.459 6.4-6.459s6.4 2.643 6.4 6.459h1.2c0-4.46-2.97-7.659-7.6-7.659-4.63 0-7.6 3.199-7.6 7.659v6.882c0 4.251 3.943 7.659 8.767 7.659v-1.2z"/>
        <path fill="#6295FF" d="M112.423 104l6.588 1.3 5.989 1.18c-2.735 19.687-4.126 29.654-4.174 29.903-.69 3.599-3.836 6.094-7.385 6.11l-4.283 22.355 6.288 1.24-.174.912-6.289-1.24-2.695-.532v-.001l-6.288-1.24.175-.91 6.288 1.239 4.272-22.3c-3.38-1.246-5.497-4.727-4.924-8.345l.043-.242c.032-.167 2.222-9.977 6.57-29.429z"/>
        <path fill="#FFF" d="M140.448 97.13l-6.01 2.337-5.463 2.124c5.896 18.316 8.887 27.588 8.974 27.817a7.255 7.255 0 0 0 8.008 4.596l7.808 20.602-5.736 2.231.319.84 5.736-2.232v.001l2.459-.956 5.736-2.23-.318-.84-5.736 2.23-7.789-20.553c2.984-1.75 4.4-5.416 3.255-8.768l-.084-.233c-.058-.154-3.778-9.143-11.159-26.967zM274.797 108.897l12.803 3.73-7.055 30.828a7.857 7.857 0 0 1-8.21 5.707l-5.036 17.84-2.969-.003 5.246-18.58c-3.387-1.606-5.262-5.428-4.34-9.15l.11-.391c.397-1.275 3.547-11.268 9.45-29.98z"/>
        <path fill="#6295FF" d="M300.307 98.518c8.09 18.2 12.179 27.419 12.27 27.656 1.354 3.53-.154 7.467-3.39 9.332l8.154 21.25 6.074-2.333.333.869-14.751 5.665-.333-.868 6.073-2.334-8.171-21.3c-3.474.597-6.975-1.213-8.36-4.499l-.091-.228c-.061-.16-3.38-9.674-9.956-28.544l6.363-2.444 5.785-2.222z"/>
        <path fill="#FFF" fill-rule="nonzero" d="M67.186 43.536c6.885 2.754 10.286 8.04 10.439 14.327.122 5.017-2.054 10.01-4.504 10.622l-6.793 1.709c-1.184.305-1.82.48-2.424.664l-1.476.468c-3.761 1.247-5.435 2.509-7.14 5.31l-.214.36c-.5.853-1.004 1.831-1.754 3.39l-1.113 2.338c-5.463 11.204-15.82 19.454-31.043 24.748l-.132.027c-5.346.348-8.873-1.063-10.48-4.275-1.592-3.187-.893-7.032 2-11.448C15.188 86.507 16.5 81.913 16.5 78c0-9.36 3.704-17.85 11.124-26.33 8.118-9.278 25.71-13.675 39.562-8.134zm-45.6 62.727c14.8-5.3 24.777-13.46 29.962-24.476l.745-1.571c.855-1.788 1.405-2.857 1.964-3.803l.177-.296c1.836-3.017 3.702-4.42 7.68-5.74l1.258-.402c.703-.218 1.357-.402 2.748-.76l6.759-1.7c1.874-.469 3.858-5.022 3.746-9.628-.144-5.9-3.31-10.823-9.81-13.423-13.456-5.382-30.597-1.096-38.439 7.865-7.13 8.15-10.736 16.256-10.872 25.147l-.009.95c-.09 3.989-1.443 8.588-4.077 13.848-2.746 4.196-3.38 7.684-1.97 10.502 1.353 2.708 4.344 3.97 9.065 3.75l.387-.02.687-.243zM99.385 107.923l24-10-.77-1.846-24 10zM99.385 128.077l24 10-.77 1.846-24-10zM99 120h24v-2H99zM303.606 78.92l-21-9 .788-1.84 21 9zM303.606 95.08l-21 9 .788 1.84 21-9zM304 88.5h-21v-2h21zM121.303 70.96l-10.5-4.5.394-.92 10.5 4.5zM121.303 79.04l-10.5 4.5.394.92 10.5-4.5zM121.5 75.75H111v-1h10.5zM266.697 95.96l10.5-4.5-.394-.92-10.5 4.5zM266.697 104.04l10.5 4.5-.394.92-10.5-4.5zM266.5 100.75H277v-1h-10.5z"/>
        <path fill="#FFF" fill-rule="nonzero" d="M75.121 66.485c5.03-1.257 8.449-.69 10.337 1.633l.142.182c.997 1.329 2.118.941 2.407-.615.238-1.282.01-3.28-.656-5.339-1.783-5.509-5.935-10.033-12.214-11.827l-.274.962c5.934 1.695 9.85 5.963 11.536 11.173.62 1.913.83 3.75.625 4.848l-.065.318c-.096.4-.185.368-.49-.03l-.069-.09c-2.144-2.858-6.014-3.562-11.521-2.185l.242.97z"/>
    </g>
</svg>
