<?xml version="1.0" encoding="utf-8"?>
<!-- Generator: Adobe Illustrator 24.0.2, SVG Export Plug-In . SVG Version: 6.00 Build 0)  -->
<svg version="1.1" id="Layer_1" xmlns="http://www.w3.org/2000/svg" xmlns:xlink="http://www.w3.org/1999/xlink" x="0px" y="0px"
	 viewBox="0 0 160 160" style="enable-background:new 0 0 160 160;" xml:space="preserve">
<style type="text/css">
	.st0{fill:#0A0082;}
</style>
<g>
	<path class="st0" d="M80.2,0C36,0,0,36,0,80.4C0,124.2,36,160,80.2,160c44.2,0,79.8-35.4,79.8-79.6C160,36,122.8,0,80.2,0z
		 M80.2,149c-38,0-69.2-30.8-69.2-68.6c0-38.2,31.2-69.6,69.2-69.6c37.8,0,68.8,31.6,68.8,69.6C149,118,118,149,80.2,149z"/>
	<path class="st0" d="M127.8,83c5.2-2.6,9.6-7.2,9.6-15.4c0-10.8-8-15.8-15.8-15.8h-15c-2.8,0-4.4,2.2-4.4,4.6v47
		c0,2.8,2.8,4.2,5.4,4.2c3,0,5.4-1.4,5.4-4.2V85.2h4.6l9,20.2c0.8,1.6,2.2,2.2,3.8,2.2c3.2,0,7.8-3,6-6.6L127.8,83z M116.2,77.2H113
		V61h3.8c5,0,9.4,2.2,9.4,7.8C126.2,75.6,120,77.2,116.2,77.2z"/>
	<path class="st0" d="M96.8,102.4c0,2.2-1.6,5-4.4,5H71.8c-2.6,0-5.4-1.4-5.4-4.2V56.4c0-2.4,1.6-4.6,4.4-4.6h20.4
		c2.8,0,4.4,2.6,4.4,5c0,2.2-1.6,5-4.4,5h-14v12.6h12.6c2.8,0,4.4,2.2,4.4,4.6c0,2.2-1.6,4.6-4.4,4.6H77.2v13.8h15.2
		C95.2,97.4,96.8,100,96.8,102.4z"/>
	<path class="st0" d="M50.4,83c5.2-2.6,9.6-7.2,9.6-15.4c0-10.8-8-15.8-15.8-15.8h-15c-2.8,0-4.4,2.2-4.4,4.6l0,47
		c0,2.8,2.8,4.2,5.4,4.2c3,0,5.4-1.4,5.4-4.2V85.2h4.6l9,20.2c0.8,1.6,2.2,2.2,3.8,2.2c3.2,0,7.8-3,6-6.6L50.4,83z M38.8,77.2h-3.2
		l0-16.2l3.8,0c5,0,9.4,2.2,9.4,7.8C48.8,75.6,42.6,77.2,38.8,77.2z"/>
</g>
</svg>
