<?xml version="1.0" encoding="utf-8"?>
<!-- Generator: Adobe Illustrator 23.0.1, SVG Export Plug-In . SVG Version: 6.00 Build 0)  -->
<svg version="1.1" id="Premier_plan" xmlns="http://www.w3.org/2000/svg" xmlns:xlink="http://www.w3.org/1999/xlink" x="0px"
	 y="0px" viewBox="0 0 250 250" enable-background="new 0 0 250 250" xml:space="preserve">
<g>
	<circle fill="#FFFFFF" cx="125" cy="125" r="115.9"/>
	<path fill-rule="evenodd" clip-rule="evenodd" fill="#3C91DC" d="M125,250C55.9,250,0,194.2,0,125.2C0,55.8,55.9,0,125,0
		c69.1,0,125,55.8,125,125.2C250,194.2,194.1,250,125,250z M125,18.6c-58.6,0-106.4,47.6-106.4,106.6c0,58.5,47.7,106.2,106.4,106.2
		s106.4-47.6,106.4-106.2C231.4,66.2,183.6,18.6,125,18.6z"/>
	<path fill-rule="evenodd" clip-rule="evenodd" fill="#3C91DC" d="M171,149.5c0-16.5-10.3-26.1-22.5-27.8v-0.3
		c9.1-1.7,18.7-10.7,18.7-22.8c0-25.3-23.3-29.6-42.4-29.6H81.1v116.7H123C145.1,185.7,171,179,171,149.5z M142.5,102.1
		c0,13.4-13.7,13.2-22.5,13.2h-12.9V88.5h12.6C128.1,88.5,142.5,88.2,142.5,102.1z M145,148.9c0,15.2-10.8,17.5-22.9,17.5h-15.1
		v-32.6h13.7C129.2,133.8,145,134.3,145,148.9z"/>
</g>
</svg>
