<svg xmlns="http://www.w3.org/2000/svg" width="76" height="92" viewBox="0 0 76 92">
    <g fill="none" fill-rule="evenodd">
        <path fill="#FFF" stroke="#6295FF" d="M0 60.879l33.605-19.605 38.776 19.605-31.02 20.637z"/>
        <path fill="#5267FF" d="M72.381 60.879v10.318l-31.02 20.637L0 71.197V60.88l41.36 20.637z"/>
        <path fill="#6295FF" d="M35.26 0c9.616 0 17.681 8.048 17.49 15.841-.02.808.191 16.458.191 17.281 0 7.239-5.052 13.383-12.063 15.561.149.47.223.955.212 1.437v.219c.006 1.075.064 5.57.064 5.83 0 3.17-2.639 5.742-5.894 5.742-3.255 0-5.894-2.571-5.894-5.743 0-.194.031-5.584.03-5.775-.006-.58.09-1.154.271-1.702-7.024-2.17-12.089-8.321-12.089-15.569 0-.51.079-13.53.087-16.085l.001-.71C17.762 7.868 25.753 0 35.26 0z"/>
        <path fill="#FE7B55" d="M47.978 30.955h9.927c-3.895-6.604-7.204-11.144-9.927-13.62v13.62z"/>
        <path stroke="#FFF" stroke-width="1.2" d="M44.256 34.05c0 4.954 2.275 7.43 6.824 7.43M28.746 31.574a4.958 4.958 0 0 1-4.964-4.952v-7.43a4.958 4.958 0 0 1 4.964-4.953 4.958 4.958 0 0 1 4.963 4.953"/>
        <path stroke="#5267FF" stroke-width="2" d="M63.592 27.86L76 22.701M63.592 39.21L76 44.37M63.592 34.051H76"/>
    </g>
</svg>
