<svg xmlns="http://www.w3.org/2000/svg" width="296" height="214" viewBox="0 0 296 214">
    <g fill="none" fill-rule="evenodd" transform="translate(-2.78)">
        <path fill="#FBB400" d="M275.155 207.608v-25.013l-18.76 6.253v25.013z"/>
        <path fill="#FCD732" d="M256.394 176.342l-18.76 6.253v25.013l18.76 6.253v-25.013l18.76-6.253z"/>
        <path fill="#62D0C8" d="M271.603 69.422L249.94 81.93l14.796 13.12 21.662-12.506z"/>
        <path fill="#74E5DE" d="M253.906 101.303l14.795 13.12 21.662-12.506-3.964-19.374-21.662 12.506-14.796-13.12z"/>
        <path fill="#92B6FF" d="M255.969 94.21c.98-.85 3.472.414 5.568 2.825 2.096 2.41 3.001 5.055 2.022 5.907l.002-.004-5.29 15.874c-.834 2.084-1.564 3.439-2.19 4.064-.568.569-1.395 1.137-2.48 1.706l-.333.17-65.884 33.616-4.684-9.193 65.684-33.467 7.164-20.804.05.04c.048-.308.17-.558.37-.733z"/>
        <g transform="translate(117.426 3.752)">
            <path fill="#92B6FF" d="M4.684 119.552L0 110.359l96.131-49.077-12.075-24.486 9.274-4.523 12.182 24.632c1.62 3.11 2.037 5.82 1.25 8.129-.787 2.308-2.767 4.184-5.94 5.628l-96.138 48.89z"/>
            <ellipse cx="88.52" cy="34.486" fill="#D8D8D8" stroke="#979797" stroke-width=".9" rx="5.159" ry="1.969" transform="rotate(-23 88.52 34.486)"/>
            <path fill="#FFAB8F" d="M78.191 48.605L60.816 30.612l17.84-8.534L96.03 40.071z"/>
            <path fill="#FE7B55" d="M69.967 13.082l17.84-8.534 17.375 17.993-9.151 17.53-17.376-17.993-17.839 8.534z"/>
        </g>
        <path fill="#6295FF" stroke="#6295FF" stroke-width=".9" d="M181.715 92.548h10.319v27.514l-.004.376c-.052 2.722-.676 4.681-1.872 5.878-1.05 1.05-2.112 1.879-3.185 2.488l.007.013-.39.192-.235.12-.002-.003-27.176 13.448-4.715-8.755 27.203-13.757.05-27.514z"/>
        <path fill="#D8D8D8" stroke="#979797" stroke-width=".9" d="M92.865 108.181c-2.293-2.918-3.127-5.732-2.502-8.442.626-2.71 2.71-4.794 6.254-6.253l4.69 9.067-8.442 5.628z"/>
        <g stroke-width=".9" transform="translate(90.162 42.894)">
            <path fill="#79A5FF" stroke="#6295FF" d="M43.038 4.943v32.204l-.004.376c-.052 2.722-.676 4.681-1.872 5.877-1.137 1.137-2.274 2.016-3.411 2.636l-.342.178L11.145 59.66l-.084.054 107.665 61.997 37.519-18.869-.019-.035c3.737-1.147 7.072-.834 10.006.938 2.934 1.773 4.601 4.482 5.003 8.13v27.514l-.007-.001.006.083c.022 1.258-2.132 2.323-4.86 2.432l-.257.007c-2.85.05-5.177-.962-5.2-2.26a1.104 1.104 0 0 1 .028-.262h-.029v-27.345l-37.52 19.217a9.343 9.343 0 0 1-4.69 1.25c-1.55 0-3.106-.454-4.669-1.362l-.335-.201-111-65.66C.41 62.37-.424 59.556.201 56.846c.625-2.71 2.71-4.794 6.254-6.253l26.264-13.445V4.943h10.319z"/>
            <ellipse cx="37.873" cy="5.003" fill="#D8D8D8" stroke="#979797" rx="5.472" ry="3.752" transform="rotate(11 37.873 5.003)"/>
        </g>
        <g>
            <path fill="#6295FF" stroke="#6295FF" stroke-width=".9" d="M38.793 141.323H49.11v49.401c.054.136.126.304.215.507l98.903-53.972.174-.086c1.808-.824 4.15.173 5.328 2.389 1.216 2.287.393 5.166-1.437 6.139a2.91 2.91 0 0 1-.213.102l-98.593 53.988c-4.169 1.876-7.712 1.876-10.63 0-2.919-1.876-4.274-4.69-4.065-8.442v-50.026z"/>
        </g>
        <g>
            <path fill="#FFF" stroke="#6295FF" stroke-width=".9" d="M0 130.38l25.014-12.819 62.535 37.832L62.535 167.9z"/>
            <path fill="#4E67FF" stroke="#6295FF" stroke-width=".9" d="M87.55 159.076L63.913 171.24l-1.379.342L0 134.062v-3.786l62.535 37.52 25.014-12.507z"/>
            <path fill="#FFF" stroke="#6295FF" stroke-width=".9" d="M41.273 127.879l10.944 6.878c1.306 3.486 1.306 6.195 0 8.13-1.306 1.934-4.12 3.393-8.442 4.377l-11.257-6.879c4.326-.343 7.244-1.593 8.755-3.752 1.511-2.158 1.511-5.076 0-8.754zm2.679 10.943c-2.85 0-5.16 1.05-5.16 2.345 0 1.295 2.31 2.345 5.16 2.345s5.159-1.05 5.159-2.345c0-1.295-2.31-2.345-5.16-2.345z"/>
            <path fill="#FFF" stroke="#6295FF" stroke-width=".9" d="M17.821 114.354L78.17 151.98l1.98-1.229v-42.956c0-.352-.179-.678-.469-.86L20.066 70.65l-2.165.425-.08 43.278z"/>
            <path fill="#8DCEFF" d="M17.37 114.802V70.87l59.42 36.644a3.6 3.6 0 0 1 1.71 3.092l-.331 41.904-60.798-37.708z"/>
        </g>
        <g>
            <g stroke="#6295FF" stroke-width=".9">
                <path fill="#4E67FF" d="M149.46 47.525v6.253l-18.761 12.506-25.014-12.506v-6.253z"/>
                <path fill="#FFF" d="M105.685 47.525l18.76-12.507 25.014 12.507-18.76 12.159z"/>
            </g>
            <path fill="#E71F4F" d="M111.938 47.942v-18.76l18.76-12.506 12.508 6.253-18.76 12.506v18.76z"/>
            <path fill="#FE5E55" d="M124.445 54.195l18.76-12.506v-18.76l-18.83 12.506z"/>
            <path fill="#F8767A" d="M132.262 23.867c-1.668 0-2.606-.73-2.814-2.189V10.422c0-2.501 0-5.315-1.876-4.69-1.25.417-1.876 1.564-1.876 3.44v17.821c0 1.876-2.502 2.814-4.378 2.19-1.876-.626-1.25-3.753-1.25-5.942V7.921c.417-4.586 2.814-7.191 7.191-7.817 6.566-.938 7.543 4.69 7.524 6.88-.013 1.458-.02 6.357-.02 14.694 0 1.46-.833 2.189-2.501 2.189z"/>
        </g>
        <ellipse cx="43.952" cy="141.167" fill="#FFF" stroke="#6295FF" stroke-width=".9" rx="5.159" ry="2.345"/>
        <g>
            <g stroke="#6295FF" stroke-width=".9">
                <path fill="#5267FF" d="M217.935 85.079v6.253l-37.52 18.76L155.4 97.585v-6.253"/>
                <path fill="#FFF" d="M155.4 91.332l37.521-18.76 25.014 12.507-37.52 18.76z"/>
            </g>
            <g transform="translate(173.223 53.813)">
                <path fill="#6CC87C" d="M0 25.013l.005-.16c.195-3.207 6.208-5.78 13.596-5.78 7.512 0 13.602 2.66 13.602 5.94v9.38c0 3.28-6.09 5.94-13.602 5.94C6.09 40.333 0 37.673 0 34.393v-9.38z"/>
                <path fill="#FFA689" d="M13.601 9.067c7.512 0 13.602 2.73 13.602 6.097 0 .053-.002.105-.005.157h.005v9.692c-.19 3.295-6.206 5.94-13.602 5.94C6.09 30.954 0 28.224 0 24.858l.004.155-.004.001V15.32h.004L0 15.164c0-3.312 5.892-6.007 13.233-6.095z"/>
                <path fill="#FFEB5D" d="M0 6.253h.019A2.65 2.65 0 0 1 0 5.941C0 2.66 6.09 0 13.601 0c7.512 0 13.602 2.66 13.602 5.94 0 .105-.006.21-.019.313h.019v9.067c0 3.281-6.09 5.941-13.602 5.941C6.09 21.261 0 18.601 0 15.321V6.252z"/>
                <ellipse cx="13.601" cy="5.941" fill="#FFD500" rx="13.601" ry="5.941"/>
            </g>
        </g>
    </g>
</svg>
