<svg xmlns="http://www.w3.org/2000/svg" width="860" height="616" viewBox="0 0 860 616">
    <g fill="none" fill-rule="evenodd" transform="translate(-1)">
        <path fill="#FBB400" d="M793 597.6v-72l-54 18v72z"/>
        <path fill="#FCD732" d="M739 507.6l-54 18v72l54 18v-72l54-18z"/>
        <path fill="#62D0C8" d="M782.777 199.835l-62.354 36 42.589 37.765 62.353-36z"/>
        <path fill="#74E5DE" d="M731.835 291.6l42.588 37.765 62.354-36-11.412-55.765-62.353 36-42.589-37.765z"/>
        <path fill="#92B6FF" d="M737.775 271.187c2.82-2.451 9.995 1.188 16.028 8.128 6.033 6.94 8.638 14.553 5.818 17.003l.007-.007L744.4 342c-2.4 6-4.5 9.9-6.3 11.7-1.714 1.714-4.245 3.429-7.592 5.143l-.508.257-189.637 96.763-13.484-26.462 189.065-96.335 20.62-59.885.142.121c.139-.89.489-1.612 1.069-2.115z"/>
        <g transform="translate(338.998 10.8)">
            <path fill="#92B6FF" d="M13.484 344.13L0 317.669 276.702 176.4l-34.756-70.482 26.694-13.02 35.062 70.902c4.666 8.955 5.866 16.755 3.6 23.4-2.265 6.645-7.965 12.045-17.1 16.2L13.484 344.13z"/>
            <ellipse cx="254.795" cy="99.267" fill="#D8D8D8" stroke="#979797" stroke-width=".9" rx="14.85" ry="5.667" transform="rotate(-23 254.795 99.267)"/>
            <path fill="#FFAB8F" d="M225.066 139.908L175.05 88.115 226.4 63.552l50.015 51.792z"/>
            <path fill="#FE7B55" d="M201.39 37.656l51.349-24.564 50.015 51.793-26.34 50.46-50.015-51.793-51.349 24.563z"/>
        </g>
        <path fill="#6295FF" stroke="#6295FF" stroke-width=".9" d="M553.746 266.4v79.2c0 8.4-1.8 14.4-5.4 18-3.023 3.022-6.079 5.41-9.17 7.164l.024.036-.991.491c-.27.141-.54.278-.809.409l-.004-.009-78.223 38.709-13.573-25.2 78.3-39.6.146-79.2h29.7z"/>
        <path fill="#D8D8D8" stroke="#979797" stroke-width=".9" d="M268.3 311.4c-6.6-8.4-9-16.5-7.2-24.3 1.8-7.8 7.8-13.8 18-18l13.5 26.1-24.3 16.2z"/>
        <g stroke-width=".9" transform="translate(260.521 123.472)">
            <path fill="#79A5FF" stroke="#6295FF" d="M123.879 14.228v92.7c0 8.4-1.8 14.4-5.4 18-3.429 3.429-6.858 6.041-10.286 7.837l-.514.263-75.6 38.7-.24.158 309.9 178.458 107.993-54.314-.053-.102c10.755-3.301 20.355-2.401 28.8 2.7 8.444 5.102 13.244 12.902 14.4 23.4v79.2h-.015c.007.079.011.158.013.237.065 3.735-6.53 6.879-14.73 7.022-8.2.143-14.9-2.769-14.966-6.504a3.178 3.178 0 0 1 .078-.755h-.08v-78.715l-108 55.315c-4.223 2.4-8.723 3.6-13.5 3.6-4.613 0-9.247-1.398-13.902-4.195l-.498-.305-319.5-189c-6.6-8.4-9-16.5-7.2-24.3 1.8-7.8 7.8-13.8 18-18l75.6-38.7v-92.7h29.7z"/>
            <ellipse cx="109.012" cy="14.4" fill="#D8D8D8" stroke="#979797" rx="15.75" ry="10.8" transform="rotate(11 109.012 14.4)"/>
        </g>
        <g>
            <path fill="#6295FF" stroke="#6295FF" stroke-width=".9" d="M112.66 550.8v-144h29.7l-.001 142.197c.157.393.364.88.622 1.463L427.66 395.1c5.266-2.8 12.336.047 15.836 6.63s1.13 14.87-4.136 17.67a8.37 8.37 0 0 1-.626.3L154.96 575.1c-12 5.4-22.2 5.4-30.6 0-8.4-5.4-12.3-13.5-11.7-24.3z"/>
        </g>
        <g>
            <path fill="#FFF" d="M1 375.3l72-36.9 180 108.9-72 36z"/>
            <path fill="#6295FF" fill-rule="nonzero" d="M253.931 447.337l-72.95 36.476L.073 375.269l72.944-37.384 180.913 109.452zM72.981 338.915L1.927 375.331 181.02 482.787l71.049-35.524L72.982 338.915z"/>
            <path fill="#4E67FF" stroke="#6295FF" stroke-width=".9" d="M253 457.9l-68.033 35.016-3.967.984-180-108V375l180 108 72-36z"/>
            <path fill="#FFF" stroke="#6295FF" stroke-width=".9" d="M119.8 368.1l31.5 19.8c3.758 10.032 3.758 17.832 0 23.4-3.758 5.568-11.858 9.768-24.3 12.6l-32.4-19.8c12.451-.988 20.851-4.588 25.2-10.8 4.349-6.212 4.349-14.612 0-25.2zm7.71 31.5c-8.201 0-14.85 3.022-14.85 6.75s6.649 6.75 14.85 6.75 14.85-3.022 14.85-6.75-6.649-6.75-14.85-6.75z"/>
            <path fill="#FFF" fill-rule="nonzero" d="M58.83 202.95l-6.698 1.316-.231 125.121L226 437.94l6.099-3.782V310.287a3.324 3.324 0 0 0-1.542-2.813L58.831 202.95z"/>
            <path fill="#6295FF" fill-rule="nonzero" d="M59 202l172.026 104.705a4.23 4.23 0 0 1 1.974 3.582V434.66L226 439 51 329.886l.233-126.36L59 202zm-.17.95l-6.698 1.316-.231 125.121L226 437.94l6.099-3.782V310.287a3.324 3.324 0 0 0-1.542-2.813L58.831 202.95z"/>
            <path fill="#8DCEFF" d="M51 330.457V204l174.274 107.478a3.6 3.6 0 0 1 1.71 3.093L226 439 51 330.457z"/>
        </g>
        <g>
            <path fill="#4E67FF" stroke="#6295FF" stroke-width=".9" d="M431.2 136.8v18l-54 36-72-36v-18z"/>
            <path fill="#FFF" d="M305.2 136.8l54-36 72 36-54 35z"/>
            <path fill="#6295FF" fill-rule="nonzero" d="M432.105 136.75l-54.873 35.566-72.935-35.455 54.87-36.58 72.938 36.469zm-72.873-35.43l-53.129 35.419 71.065 34.545 53.127-34.434-71.063-35.53z"/>
            <g>
                <path fill="#E71F4F" d="M323.2 138V84l54-36 36 18-54 36v54z"/>
                <path fill="#FE5E55" d="M359.2 156l54-36V66L359 102z"/>
                <path fill="#F8767A" d="M381.7 68.7c-4.8 0-7.5-2.1-8.1-6.3V30c0-7.2 0-15.3-5.4-13.5-3.6 1.2-5.4 4.5-5.4 9.9v51.3c0 5.4-7.2 8.1-12.6 6.3-5.4-1.8-3.6-10.8-3.6-17.1V22.8c1.2-13.2 8.1-20.7 20.7-22.5 18.9-2.7 21.712 13.5 21.656 19.8-.037 4.2-.056 18.3-.056 42.3 0 4.2-2.4 6.3-7.2 6.3z"/>
            </g>
        </g>
        <ellipse cx="127.51" cy="406.35" fill="#FFF" stroke="#6295FF" stroke-width=".9" rx="14.85" ry="6.75"/>
        <g>
            <path fill="#5267FF" stroke="#6295FF" stroke-width=".9" d="M628.3 244.9v18l-108 54-72-36v-18"/>
            <path fill="#FFF" d="M448.3 262.9l108-54 72 36-108 54z"/>
            <path fill="#6295FF" fill-rule="nonzero" d="M629.306 244.9L520.3 299.403 447.294 262.9 556.3 208.397l73.006 36.503zM556.3 209.403L449.306 262.9l70.994 35.497L627.294 244.9 556.3 209.403z"/>
            <g transform="translate(499.6 154.9)">
                <path fill="#6CC87C" d="M0 72l.005-.283C.351 62.404 17.745 54.9 39.15 54.9c21.622 0 39.15 7.656 39.15 17.1v27c0 9.444-17.528 17.1-39.15 17.1S0 108.444 0 99V72z"/>
                <path fill="#FFA689" d="M39.15 26.1c21.622 0 39.15 7.857 39.15 17.55 0 .15-.004.3-.013.45h.013V72h-.013c-.533 9.485-17.851 17.1-39.137 17.1S.546 81.485.013 72H0V44.1h.013C.004 43.95 0 43.8 0 43.65 0 33.957 17.528 26.1 39.15 26.1z"/>
                <path fill="#FFEB5D" d="M0 18h.053A7.629 7.629 0 0 1 0 17.1C0 7.656 17.528 0 39.15 0S78.3 7.656 78.3 17.1c0 .302-.018.603-.053.9h.053v26.1c0 9.444-17.528 17.1-39.15 17.1S0 53.544 0 44.1V18z"/>
                <ellipse cx="39.15" cy="17.1" fill="#FFD500" rx="39.15" ry="17.1"/>
            </g>
        </g>
    </g>
</svg>
