<?xml version="1.0" encoding="UTF-8" standalone="no"?>
<!-- Created with Inkscape (http://www.inkscape.org/) -->
<svg
   xmlns:dc="http://purl.org/dc/elements/1.1/"
   xmlns:cc="http://creativecommons.org/ns#"
   xmlns:rdf="http://www.w3.org/1999/02/22-rdf-syntax-ns#"
   xmlns:svg="http://www.w3.org/2000/svg"
   xmlns="http://www.w3.org/2000/svg"
   xmlns:sodipodi="http://sodipodi.sourceforge.net/DTD/sodipodi-0.dtd"
   xmlns:inkscape="http://www.inkscape.org/namespaces/inkscape"
   width="200"
   height="200"
   id="svg2"
   sodipodi:version="0.32"
   inkscape:version="0.46"
   version="1.0"
   sodipodi:docname="Tram-T.svg"
   inkscape:output_extension="org.inkscape.output.svg.inkscape">
  <defs
     id="defs4"><inkscape:perspective
   sodipodi:type="inkscape:persp3d"
   inkscape:vp_x="0 : 526.18109 : 1"
   inkscape:vp_y="0 : 1000 : 0"
   inkscape:vp_z="744.09448 : 526.18109 : 1"
   inkscape:persp3d-origin="372.04724 : 350.78739 : 1"
   id="perspective10" />

<inkscape:perspective
   id="perspective2630"
   inkscape:persp3d-origin="56.5 : 18.333333 : 1"
   inkscape:vp_z="113 : 27.5 : 1"
   inkscape:vp_y="0 : 1000 : 0"
   inkscape:vp_x="0 : 27.5 : 1"
   sodipodi:type="inkscape:persp3d" />
<inkscape:perspective
   id="perspective2844"
   inkscape:persp3d-origin="200 : 133.33333 : 1"
   inkscape:vp_z="400 : 200 : 1"
   inkscape:vp_y="0 : 1000 : 0"
   inkscape:vp_x="0 : 200 : 1"
   sodipodi:type="inkscape:persp3d" />
</defs>
  <sodipodi:namedview
     id="base"
     pagecolor="#ffffff"
     bordercolor="#666666"
     borderopacity="1.0"
     inkscape:pageopacity="0.0"
     inkscape:pageshadow="2"
     inkscape:zoom="1.4"
     inkscape:cx="208.30153"
     inkscape:cy="114.89988"
     inkscape:document-units="px"
     inkscape:current-layer="layer1"
     showgrid="false"
     showguides="true"
     inkscape:guide-bbox="true"
     inkscape:window-width="1280"
     inkscape:window-height="750"
     inkscape:window-x="-8"
     inkscape:window-y="-8" />
  <metadata
     id="metadata7">
    <rdf:RDF>
      <cc:Work
         rdf:about="">
        <dc:format>image/svg+xml</dc:format>
        <dc:type
           rdf:resource="http://purl.org/dc/dcmitype/StillImage" />
      </cc:Work>
    </rdf:RDF>
  </metadata>
  <g
     inkscape:label="Calque 1"
     inkscape:groupmode="layer"
     id="layer1"
     transform="translate(3.716016,-285.60206)">
    <g
       id="g2864">
      <path
         id="path2625"
         d="M 133.46755,338.80865 L 59.590975,338.80865 C 59.590975,338.80865 50.352655,338.92471 50.352655,347.9067 C 50.352655,347.9067 50.352655,357.15078 59.459905,357.03471 L 86.676805,357.03471 L 86.800385,436.24397 C 86.800385,436.24397 86.800385,445.25217 96.776415,445.25217 C 96.776415,445.25217 106.2544,445.47307 106.12333,436.11292 L 106.12333,357.03097 L 133.22789,357.14703 C 133.22789,357.14703 142.21531,357.14703 142.21531,347.90296 C 142.21531,347.9067 142.21531,338.92471 133.46755,338.80865"
         style="fill:#184b9c" />
      <path
         sodipodi:nodetypes="csssccsssc"
         style="fill:#14489e"
         d="M 196.28398,386.09804 C 196.28398,330.59904 149.78097,285.60206 96.530214,285.60206 C 41.278954,285.60206 -3.716016,330.59904 -3.716016,386.09804 C -3.716016,441.09402 41.278954,485.60206 96.530214,485.60206 C 151.78147,485.60206 196.28398,441.34025 196.28398,386.09804 M 182.53474,386.09804 C 182.53474,433.10005 143.788,472.33774 96.530714,472.33774 C 49.038754,472.33774 10.033724,433.59904 10.033724,386.09804 C 10.033724,338.35784 49.038754,298.84628 96.530714,298.84628 C 143.7875,298.84628 182.53474,338.60055 182.53474,386.09804 z"
         id="path2837" />
    </g>
  </g>
</svg>
