<svg xmlns="http://www.w3.org/2000/svg" width="32" height="26" viewBox="0 0 32 26">
    <path fill="#FFF" fill-rule="nonzero" d="M31.36 3.03a12.8 12.8 0 0 1-3.695 1.018A6.468 6.468 0 0 0 30.494.473a12.853 12.853 0 0 1-4.086 1.568A6.41 6.41 0 0 0 21.712 0c-4.154 0-7.207 3.893-6.269 7.934-5.345-.269-10.086-2.841-13.26-6.751C.498 4.087 1.31 7.887 4.173 9.81a6.385 6.385 0 0 1-2.912-.808c-.07 2.994 2.066 5.795 5.16 6.418a6.42 6.42 0 0 1-2.906.11 6.442 6.442 0 0 0 6.01 4.488A12.895 12.895 0 0 1 0 22.697 18.155 18.155 0 0 0 9.863 25.6c11.945 0 18.694-10.134 18.287-19.224a13.132 13.132 0 0 0 3.21-3.345z"/>
</svg>
